SplineFontDB: 3.0
FontName: Coda-Heavy
FullName: Coda-Heavy
FamilyName: Coda
Weight: Black
Copyright: Copyright (c) 2009 by vernon adams. All rights reserved.
Version: 1.000;PS 001.001;hotconv 1.0.56
ItalicAngle: 0
UnderlinePosition: -103
UnderlineWidth: 102
Ascent: 1638
Descent: 410
sfntRevision: 0x00010000
LayerCount: 2
Layer: 0 1 "Back"  1
Layer: 1 1 "Fore"  0
NeedsXUIDChange: 1
XUID: [1021 14 500265001 14100583]
FSType: 256
OS2Version: 3
OS2_WeightWidthSlopeOnly: 0
OS2_UseTypoMetrics: 1
CreationTime: 1313076410
ModificationTime: 1317472079
PfmFamily: 17
TTFWeight: 900
TTFWidth: 1
LineGap: 0
VLineGap: 0
Panose: 2 0 5 5 2 0 0 2 0 4
OS2TypoAscent: 437
OS2TypoAOffset: 1
OS2TypoDescent: -328
OS2TypoDOffset: 1
OS2TypoLinegap: 0
OS2WinAscent: -300
OS2WinAOffset: 1
OS2WinDescent: 0
OS2WinDOffset: 1
HheadAscent: -300
HheadAOffset: 1
HheadDescent: 0
HheadDOffset: 1
OS2SubXSize: 1331
OS2SubYSize: 1228
OS2SubXOff: 0
OS2SubYOff: 153
OS2SupXSize: 1331
OS2SupYSize: 1228
OS2SupXOff: 0
OS2SupYOff: 716
OS2StrikeYSize: 102
OS2StrikeYPos: 780
OS2Vendor: 'newt'
OS2CodePages: 00000001.00000000
OS2UnicodeRanges: 00000007.00000000.00000000.00000000
Lookup: 258 0 0 "'kern' Horizontal Kerning lookup 0"  {"'kern' Horizontal Kerning lookup 0 subtable"  } ['kern' ('DFLT' <'dflt' > ) ]
MarkAttachClasses: 1
DEI: 91125
KernClass2: 2+ 3 "'kern' Horizontal Kerning lookup 0 subtable" 
 1 A
 1 T
 1 T
 11 a c d e o q
 0 {} -107 {} -17 {} 0 {} 0 {} -102 {}
TtTable: prep
PUSHW_2
 2048
 2048
MUL
DUP
PUSHB_1
 10
SWAP
WS
DUP
PUSHB_1
 0
SWAP
WCVTF
PUSHB_1
 16
RCVT
DUP
DUP
PUSHB_1
 40
ADD
FLOOR
DUP
ROLL
NEQ
IF
PUSHB_1
 10
RS
MUL
SWAP
DIV
PUSHB_1
 9
SWAP
WS
PUSHB_4
 5
 6
 3
 2
CALL
PUSHB_4
 7
 12
 3
 2
CALL
PUSHB_4
 13
 18
 3
 2
CALL
ELSE
PUSHB_2
 9
 10
RS
WS
EIF
PUSHB_3
 11
 40
 2
RCVT
GT
WS
PUSHB_4
 7
 12
 4
 2
CALL
EndTTInstrs
TtTable: fpgm
PUSHB_1
 0
FDEF
DUP
ABS
PUSHB_1
 32
ADD
FLOOR
SWAP
PUSHB_1
 0
LT
IF
NEG
EIF
ENDF
PUSHB_1
 1
FDEF
DUP
ABS
DUP
PUSHB_1
 192
LT
PUSHB_1
 4
MINDEX
AND
PUSHB_1
 11
RS
OR

StartChar: exclam
Encoding: 33 33 4
Width: 722
GlyphClass: 2
Flags: HW
LayerCount: 2
Fore
SplineSet
311.242424242 620 m 128,-1,1
 292 701 292 701 207 1001.70754717 c 128,-1,2
 122 1302.41509434 122 1302.41509434 122 1409.70754717 c 128,-1,3
 122 1517 122 1517 196 1574 c 128,-1,4
 270 1631 270 1631 374 1631 c 128,-1,5
 478 1631 478 1631 555.5 1572.5 c 128,-1,6
 633 1514 633 1514 633 1407.03703704 c 128,-1,7
 633 1300.07407407 633 1300.07407407 545 1001.03703704 c 128,-1,8
 457 702 457 702 442 638 c 0,9,10
 418.796875 539 418.796875 539 374.640861742 539 c 128,-1,0
 330.484848485 539 330.484848485 539 311.242424242 620 c 128,-1,1
171 171 m 128,-1,12
 171 270 171 270 231.5 325.5 c 128,-1,13
 292 381 292 381 375 381 c 128,-1,14
 458 381 458 381 518.5 325.5 c 128,-1,15
 579 270 579 270 579 171 c 128,-1,16
 579 72 579 72 518.5 16.5 c 128,-1,17
 458 -39 458 -39 375 -39 c 128,-1,18
 292 -39 292 -39 231.5 16.5 c 128,-1,11
 171 72 171 72 171 171 c 128,-1,12
EndSplineSet
EndChar

StartChar: quotedbl
Encoding: 34 34 5
Width: 1213
GlyphClass: 2
Flags: HW
LayerCount: 2
Fore
SplineSet
147 1458.55479452 m 128,-1,1
 147 1538 147 1538 202 1583.5 c 128,-1,2
 257 1629 257 1629 334 1629 c 128,-1,3
 411 1629 411 1629 469.5 1581.5 c 128,-1,4
 528 1534 528 1534 528 1455.58666667 c 128,-1,5
 528 1377.17333333 528 1377.17333333 467 1170.58666667 c 128,-1,6
 406 964 406 964 391.447916667 900.5 c 128,-1,7
 376.895833333 837 376.895833333 837 336.585847701 837 c 128,-1,8
 296.275862069 837 296.275862069 837 280.137931034 900.5 c 128,-1,9
 264 964 264 964 205.5 1171.55479452 c 128,-1,0
 147 1379.10958904 147 1379.10958904 147 1458.55479452 c 128,-1,1
644 1458.55479452 m 128,-1,11
 644 1538 644 1538 699 1583.5 c 128,-1,12
 754 1629 754 1629 831 1629 c 128,-1,13
 908 1629 908 1629 966.5 1581.5 c 128,-1,14
 1025 1534 1025 1534 1025 1455.58666667 c 128,-1,15
 1025 1377.17333333 1025 1377.17333333 964 1170.58666667 c 128,-1,16
 903 964 903 964 888.447916667 900.5 c 128,-1,17
 873.895833333 837 873.895833333 837 833.585847701 837 c 128,-1,18
 793.275862069 837 793.275862069 837 777.137931034 900.5 c 128,-1,19
 761 964 761 964 702.5 1171.55479452 c 128,-1,10
 644 1379.10958904 644 1379.10958904 644 1458.55479452 c 128,-1,11
EndSplineSet
EndChar

StartChar: numbersign
Encoding: 35 35 6
Width: 1718
GlyphClass: 2
Flags: HW
LayerCount: 2
Fore
SplineSet
1567 430 m 1,0,-1
 1402 430 l 1,1,-1
 1342 0 l 1,2,-1
 841 0 l 1,3,-1
 902 429 l 1,4,-1
 705 429 l 1,5,-1
 645 0 l 1,6,-1
 143 0 l 1,7,-1
 204 429 l 1,8,-1
 70 429 l 1,9,-1
 96 621 l 1,10,-1
 234 621 l 1,11,-1
 285 993 l 1,12,-1
 137 993 l 1,13,-1
 166 1200 l 1,14,-1
 319 1200 l 1,15,-1
 373 1595 l 1,16,-1
 872 1595 l 1,17,-1
 819 1200 l 1,18,-1
 1016 1200 l 1,19,-1
 1071 1595 l 1,20,-1
 1569 1595 l 1,21,-1
 1516 1200 l 1,22,-1
 1664 1200 l 1,23,-1
 1634 994 l 1,24,-1
 1483 994 l 1,25,-1
 1431 621 l 1,26,-1
 1594 621 l 1,27,-1
 1567 430 l 1,0,-1
734 621 m 1,28,-1
 931 621 l 1,29,-1
 983 993 l 1,30,-1
 786 993 l 1,31,-1
 734 621 l 1,28,-1
EndSplineSet
EndChar

StartChar: dollar
Encoding: 36 36 7
Width: 1434
GlyphClass: 2
Flags: HW
LayerCount: 2
Fore
SplineSet
685 -168 m 1,0,-1
 685 22 l 1,1,2
 228.947346054 25.6484212316 228.947346054 25.6484212316 139 206.5 c 0,3,4
 92 301 92 301 101 482 c 1,5,-1
 600 450 l 1,6,-1
 600 283 l 1,7,-1
 685 283 l 1,8,-1
 685 586 l 1,9,10
 344.975066785 649.394479074 344.975066785 649.394479074 270.987533393 707.197239537 c 0,11,12
 146.51552795 804.440993789 146.51552795 804.440993789 108.257763975 884.983654789 c 128,-1,13
 70 965.526315789 70 965.526315789 70 1078.76315789 c 128,-1,14
 70 1192 70 1192 101.5 1274.5 c 0,15,16
 159.828918178 1427.26621428 159.828918178 1427.26621428 307.951210586 1483.60720893 c 128,-1,17
 456.073502994 1539.94820359 456.073502994 1539.94820359 685 1544 c 1,18,-1
 685 1730 l 1,19,-1
 764 1730 l 1,20,-1
 764 1545 l 1,21,22
 1007 1543 1007 1543 1147.33393502 1497.72202166 c 0,23,24
 1379.09457169 1422.94571694 1379.09457169 1422.94571694 1346 1092 c 1,25,-1
 847 1122 l 1,26,-1
 847 1283 l 1,27,-1
 764 1283 l 1,28,-1
 764 997 l 1,29,30
 1202.61324439 913.71900423 1202.61324439 913.71900423 1290.30662219 781.435773302 c 128,-1,31
 1378 649.152542373 1378 649.152542373 1378 522.076271186 c 128,-1,32
 1378 395 1378 395 1350 311 c 0,33,34
 1296.02941176 149.088235294 1296.02941176 149.088235294 1149.84730041 88.0248216888 c 128,-1,35
 1003.66518905 26.9614080834 1003.66518905 26.9614080834 764 23 c 1,36,-1
 764 -168 l 1,37,-1
 685 -168 l 1,0,-1
764 283 m 1,38,-1
 847 283 l 1,39,-1
 847 556 l 1,40,-1
 764 572 l 1,41,-1
 764 283 l 1,38,-1
685 1283 m 1,42,-1
 600 1283 l 1,43,-1
 600 1031 l 1,44,45
 603 1030 603 1030 635 1023 c 128,-1,46
 667 1016 667 1016 685 1012 c 1,47,-1
 685 1283 l 1,42,-1
EndSplineSet
EndChar

StartChar: percent
Encoding: 37 37 8
Width: 2792
GlyphClass: 2
Flags: HW
LayerCount: 2
Fore
SplineSet
623 1378 m 1,0,-1
 532 1378 l 1,1,-1
 532 833 l 1,2,-1
 623 833 l 1,3,-1
 623 1378 l 1,0,-1
580.5 618 m 128,-1,5
 528 618 528 618 499.5 618.5 c 128,-1,6
 471 619 471 619 427.5 622 c 128,-1,7
 384 625 384 625 357 630.5 c 128,-1,8
 330 636 330 636 294.5 647 c 128,-1,9
 259 658 259 658 237.5 673 c 0,10,11
 125 751.488372093 125 751.488372093 125 927 c 2,12,-1
 125 1286 l 2,13,14
 125 1490.67142857 125 1490.67142857 254.937106918 1544.50251572 c 0,15,16
 376.827586207 1595 376.827586207 1595 499.413793103 1595 c 128,-1,17
 622 1595 622 1595 657 1593.5 c 128,-1,18
 692 1592 692 1592 737 1588 c 128,-1,19
 782 1584 782 1584 814.5 1574.5 c 128,-1,20
 847 1565 847 1565 882 1550.5 c 0,21,22
 1025 1491.25714286 1025 1491.25714286 1025 1288 c 2,23,-1
 1025 929 l 2,24,25
 1025 748.135135135 1025 748.135135135 936.768707483 693.288656003 c 128,-1,26
 848.537414966 638.442176871 848.537414966 638.442176871 778.768707483 629.721088435 c 128,-1,27
 709 621 709 621 671 619.5 c 128,-1,4
 633 618 633 618 580.5 618 c 128,-1,5
2262 892 m 1,28,-1
 2172 892 l 1,29,-1
 2172 347 l 1,30,-1
 2262 347 l 1,31,-1
 2262 892 l 1,28,-1
2213.5 129 m 128,-1,33
 2158 129 2158 129 2118.5 130.5 c 128,-1,34
 2079 132 2079 132 2028 139 c 128,-1,35
 1977 146 1977 146 1942.5 158.5 c 0,36,37
 1765 222.811594203 1765 222.811594203 1765 441 c 2,38,-1
 1765 798 l 2,39,40
 1765 974.638888889 1765 974.638888889 1851.92715778 1030.17568414 c 128,-1,41
 1938.85431556 1085.71247938 1938.85431556 1085.71247938 2008.42715778 1095.35623969 c 128,-1,42
 2078 1105 2078 1105 2118 1107 c 128,-1,43
 2158 1109 2158 1109 2214 1109 c 128,-1,44
 2270 1109 2270 1109 2309.5 1107.5 c 128,-1,45
 2349 1106 2349 1106 2400 1099 c 128,-1,46
 2451 1092 2451 1092 2486 1079.5 c 0,47,48
 2665 1015.57142857 2665 1015.57142857 2665 799 c 2,49,-1
 2665 442 l 2,50,51
 2665 268 2665 268 2565.92428491 203.325574874 c 128,-1,52
 2466.84856983 138.651149748 2466.84856983 138.651149748 2367.92428491 133.825574874 c 128,-1,32
 2269 129 2269 129 2213.5 129 c 128,-1,33
1779 1632 m 1,53,-1
 1403 -39 l 1,54,-1
 1015 -39 l 1,55,-1
 1395 1632 l 1,56,-1
 1779 1632 l 1,53,-1
EndSplineSet
EndChar

StartChar: ampersand
Encoding: 38 38 9
Width: 1653
GlyphClass: 2
Flags: HW
LayerCount: 2
Fore
SplineSet
896 224 m 1,0,-1
 896 736 l 1,1,-1
 687 736 l 1,2,-1
 687 224 l 1,3,-1
 896 224 l 1,0,-1
806 1632 m 0,4,5
 1442 1632 1442 1632 1442 1238 c 0,6,7
 1442 1209 1442 1209 1438 1184 c 1,8,-1
 893 1184 l 1,9,-1
 893 1392 l 1,10,-1
 687 1392 l 1,11,-1
 687 929 l 1,12,-1
 896 929 l 1,13,-1
 896 1068 l 1,14,-1
 1442 1068 l 1,15,-1
 1442 929 l 1,16,-1
 1593 929 l 1,17,-1
 1593 736 l 1,18,-1
 1442 736 l 1,19,-1
 1442 513 l 2,20,21
 1442 180.0625 1442 180.0625 1325.18421053 85.1496710526 c 128,-1,22
 1208.36842105 -9.76315789474 1208.36842105 -9.76315789474 1057.18421053 -24.8815789474 c 128,-1,23
 906 -40 906 -40 788.5 -40 c 128,-1,24
 671 -40 671 -40 600 -35.5 c 128,-1,25
 529 -31 529 -31 454.5 -18.5 c 128,-1,26
 380 -6 380 -6 327 16.5 c 0,27,28
 85 119.235849057 85 119.235849057 85 456 c 0,29,30
 85 558.638888889 85 558.638888889 123.298674931 678.854174088 c 128,-1,31
 161.597349861 799.069459286 161.597349861 799.069459286 247 809 c 2,32,-1
 359 822 l 1,33,-1
 359 861 l 1,34,-1
 247 873 l 2,35,36
 189.596185286 879.150408719 189.596185286 879.150408719 136.798092643 952.653635732 c 128,-1,37
 84 1026.15686275 84 1026.15686275 84 1198 c 0,38,39
 84 1603.09090909 84 1603.09090909 603.556213018 1626.70710059 c 0,40,41
 720 1632 720 1632 806 1632 c 0,4,5
EndSplineSet
EndChar

StartChar: quotesingle
Encoding: 39 39 10
Width: 629
GlyphClass: 2
Flags: HW
LayerCount: 2
Fore
SplineSet
147 1458.55479452 m 128,-1,1
 147 1538 147 1538 202 1583.5 c 128,-1,2
 257 1629 257 1629 334 1629 c 128,-1,3
 411 1629 411 1629 469.5 1581.5 c 128,-1,4
 528 1534 528 1534 528 1455.58666667 c 128,-1,5
 528 1377.17333333 528 1377.17333333 467 1170.58666667 c 128,-1,6
 406 964 406 964 391.447916667 900.5 c 128,-1,7
 376.895833333 837 376.895833333 837 336.585847701 837 c 128,-1,8
 296.275862069 837 296.275862069 837 280.137931034 900.5 c 128,-1,9
 264 964 264 964 205.5 1171.55479452 c 128,-1,0
 147 1379.10958904 147 1379.10958904 147 1458.55479452 c 128,-1,1
EndSplineSet
EndChar

StartChar: parenleft
Encoding: 40 40 11
Width: 860
GlyphClass: 2
Flags: HW
LayerCount: 2
Fore
SplineSet
75 1125 m 128,-1,1
 99 1270 99 1270 150 1400.5 c 128,-1,2
 201 1531 201 1531 273.5 1628.5 c 0,3,4
 431.512820513 1841 431.512820513 1841 678 1841 c 2,5,-1
 771 1841 l 1,6,-1
 771 1562 l 1,7,-1
 706 1562 l 2,8,9
 549.374622356 1562 549.374622356 1562 482 1177.5 c 0,10,11
 453 1012 453 1012 453 827 c 128,-1,12
 453 642 453 642 482 481 c 0,13,14
 548.826086957 110 548.826086957 110 706 110 c 2,15,-1
 771 110 l 1,16,-1
 771 -169 l 1,17,-1
 678 -169 l 2,18,19
 320.9296875 -169 320.9296875 -169 150 260 c 0,20,21
 51 508.470588235 51 508.470588235 51 744.235294118 c 128,-1,0
 51 980 51 980 75 1125 c 128,-1,1
EndSplineSet
EndChar

StartChar: parenright
Encoding: 41 41 12
Width: 861
GlyphClass: 2
Flags: HW
LayerCount: 2
Fore
SplineSet
786 531 m 128,-1,1
 762 388 762 388 711 260 c 128,-1,2
 660 132 660 132 587.5 37 c 0,3,4
 430.289473684 -169 430.289473684 -169 183 -169 c 2,5,-1
 90 -169 l 1,6,-1
 90 110 l 1,7,-1
 155 110 l 2,8,9
 312.173913043 110 312.173913043 110 379 481 c 0,10,11
 408 642 408 642 408 827 c 128,-1,12
 408 1012 408 1012 379 1177.5 c 0,13,14
 311.625377644 1562 311.625377644 1562 155 1562 c 2,15,-1
 90 1562 l 1,16,-1
 90 1841 l 1,17,-1
 183 1841 l 2,18,19
 538.850574713 1841 538.850574713 1841 711 1400.5 c 0,20,21
 810 1147.17647059 810 1147.17647059 810 910.588235294 c 128,-1,0
 810 674 810 674 786 531 c 128,-1,1
EndSplineSet
EndChar

StartChar: asterisk
Encoding: 42 42 13
Width: 1321
GlyphClass: 2
Flags: HW
LayerCount: 2
Fore
SplineSet
201 817 m 0,0,1
 73 817 73 817 73 964.5 c 128,-1,2
 73 1112 73 1112 199 1112 c 0,3,4
 256.090909091 1112 256.090909091 1112 392.545454545 1072.5 c 128,-1,5
 529 1033 529 1033 551 1027 c 1,6,7
 479 1095 479 1095 460 1114 c 128,-1,8
 441 1133 441 1133 416 1157 c 128,-1,9
 391 1181 391 1181 377.5 1196 c 2,10,-1
 346 1231 l 2,11,12
 282 1302.11111111 282 1302.11111111 282 1355.55555556 c 128,-1,13
 282 1409 282 1409 334.5 1453 c 128,-1,14
 387 1497 387 1497 453 1497 c 128,-1,15
 519 1497 519 1497 549.095238095 1447.07142857 c 128,-1,16
 579.19047619 1397.14285714 579.19047619 1397.14285714 602.095238095 1312.57142857 c 128,-1,17
 625 1228 625 1228 642 1161.5 c 128,-1,18
 659 1095 659 1095 663 1080 c 1,19,20
 738.461538462 1381.84615385 738.461538462 1381.84615385 773.230769231 1439.42307692 c 128,-1,21
 808 1497 808 1497 873.5 1497 c 128,-1,22
 939 1497 939 1497 992 1453 c 128,-1,23
 1045 1409 1045 1409 1045 1363.640625 c 128,-1,24
 1045 1318.28125 1045 1318.28125 1022.5 1286.640625 c 0,25,26
 982.769230769 1230.76923077 982.769230769 1230.76923077 941.5 1189.5 c 2,27,-1
 893 1141 l 2,28,29
 859 1107 859 1107 775 1027 c 1,30,31
 1058.33333333 1112 1058.33333333 1112 1122.66666667 1112 c 0,32,33
 1254 1112 1254 1112 1254 964.5 c 128,-1,34
 1254 817 1254 817 1128 817 c 0,35,36
 1062 817 1062 817 775 899 c 1,37,38
 792 883 792 883 821 856 c 128,-1,39
 850 829 850 829 866.5 813.5 c 128,-1,40
 883 798 883 798 907.5 774.5 c 128,-1,41
 932 751 932 751 946 736 c 128,-1,42
 960 721 960 721 978 701 c 0,43,44
 1044 627.666666667 1044 627.666666667 1044 574.833333333 c 128,-1,45
 1044 522 1044 522 991.5 476 c 128,-1,46
 939 430 939 430 874.5 430 c 128,-1,47
 810 430 810 430 771.413043478 495.347826087 c 128,-1,48
 732.826086957 560.695652174 732.826086957 560.695652174 663 840 c 1,49,50
 642.510638298 767.14893617 642.510638298 767.14893617 629.255319149 715.074468085 c 128,-1,51
 616 663 616 663 605.5 627 c 128,-1,52
 595 591 595 591 586.5 569.5 c 128,-1,53
 578 548 578 548 567 522.5 c 0,54,55
 527.098039216 430 527.098039216 430 457.549019608 430 c 128,-1,56
 388 430 388 430 335 476.5 c 128,-1,57
 282 523 282 523 282 565.6 c 128,-1,58
 282 608.2 282 608.2 296 630.6 c 128,-1,59
 310 653 310 653 319.5 667.5 c 128,-1,60
 329 682 329 682 347.5 702 c 128,-1,61
 366 722 366 722 379.5 736.5 c 128,-1,62
 393 751 393 751 418 775 c 128,-1,63
 443 799 443 799 458.5 813.5 c 128,-1,64
 474 828 474 828 504.5 856 c 128,-1,65
 535 884 535 884 551 899 c 1,66,67
 264 817 264 817 201 817 c 0,0,1
EndSplineSet
EndChar

StartChar: plus
Encoding: 43 43 14
Width: 1328
GlyphClass: 2
Flags: HW
LayerCount: 2
Fore
SplineSet
469 811 m 1,0,-1
 469 1192 l 1,1,-1
 861 1192 l 1,2,-1
 861 811 l 1,3,-1
 1225 811 l 1,4,-1
 1225 478 l 1,5,-1
 861 478 l 1,6,-1
 861 100 l 1,7,-1
 469 100 l 1,8,-1
 469 478 l 1,9,-1
 104 478 l 1,10,-1
 104 811 l 1,11,-1
 469 811 l 1,0,-1
EndSplineSet
EndChar

StartChar: comma
Encoding: 44 44 15
Width: 711
GlyphClass: 2
Flags: HW
LayerCount: 2
Fore
SplineSet
141 210 m 128,-1,1
 141 303 141 303 201.5 356 c 128,-1,2
 262 409 262 409 355 409 c 128,-1,3
 448 409 448 409 501.5 341 c 128,-1,4
 555 273 555 273 555 186 c 128,-1,5
 555 99 555 99 531.5 28.5 c 128,-1,6
 508 -42 508 -42 465 -101 c 0,7,8
 368.06779661 -234 368.06779661 -234 208 -234 c 0,9,10
 186 -234 186 -234 164 -231 c 1,11,-1
 164 -122 l 1,12,13
 311.452894438 -119.659477866 311.452894438 -119.659477866 320 0 c 1,14,15
 245 8 245 8 193 62.5 c 128,-1,0
 141 117 141 117 141 210 c 128,-1,1
EndSplineSet
EndChar

StartChar: hyphen
Encoding: 45 45 16
Width: 1328
GlyphClass: 2
Flags: HW
LayerCount: 2
Fore
SplineSet
1165 811 m 1,0,-1
 1165 478 l 1,1,-1
 164 478 l 1,2,-1
 164 811 l 1,3,-1
 1165 811 l 1,0,-1
EndSplineSet
EndChar

StartChar: period
Encoding: 46 46 17
Width: 670
GlyphClass: 2
Flags: HW
LayerCount: 2
Fore
SplineSet
136 171 m 128,-1,1
 136 270 136 270 196.5 325.5 c 128,-1,2
 257 381 257 381 340 381 c 128,-1,3
 423 381 423 381 483.5 325.5 c 128,-1,4
 544 270 544 270 544 171 c 128,-1,5
 544 72 544 72 483.5 16.5 c 128,-1,6
 423 -39 423 -39 340 -39 c 128,-1,7
 257 -39 257 -39 196.5 16.5 c 128,-1,0
 136 72 136 72 136 171 c 128,-1,1
EndSplineSet
EndChar

StartChar: slash
Encoding: 47 47 18
Width: 1056
GlyphClass: 2
Flags: HW
LayerCount: 2
Fore
SplineSet
136 0 m 1,0,-1
 488 1595 l 1,1,-1
 922 1595 l 1,2,-1
 571 0 l 1,3,-1
 136 0 l 1,0,-1
EndSplineSet
EndChar

StartChar: zero
Encoding: 48 48 19
Width: 1469
GlyphClass: 2
Flags: HW
LayerCount: 2
Fore
SplineSet
653 233 m 1,0,-1
 819 233 l 1,1,-1
 819 1359 l 1,2,-1
 653 1359 l 1,3,-1
 653 233 l 1,0,-1
740 -39 m 128,-1,5
 679 -39 679 -39 633 -37.5 c 128,-1,6
 587 -36 587 -36 529.5 -31.5 c 128,-1,7
 472 -27 472 -27 429 -19 c 128,-1,8
 386 -11 386 -11 338 3.5 c 128,-1,9
 290 18 290 18 255.5 38 c 0,10,11
 89 134.52173913 89 134.52173913 89 352 c 2,12,-1
 89 1242 l 2,13,14
 89 1417 89 1417 172.235878256 1491.53959247 c 128,-1,15
 255.471756513 1566.07918494 255.471756513 1566.07918494 322.235878256 1586.03959247 c 0,16,17
 479.310344828 1633 479.310344828 1633 647.655172414 1633 c 128,-1,18
 816 1633 816 1633 874.5 1630.5 c 128,-1,19
 933 1628 933 1628 1004 1618.5 c 128,-1,20
 1075 1609 1075 1609 1126 1593 c 0,21,22
 1383 1512.37254902 1383 1512.37254902 1383 1242 c 2,23,-1
 1383 352 l 2,24,25
 1383 171.208955224 1383 171.208955224 1300.40661909 97.2447335175 c 128,-1,26
 1217.81323819 23.280511811 1217.81323819 23.280511811 1151.90661909 4.64025590551 c 128,-1,27
 1086 -14 1086 -14 1045 -21.5 c 128,-1,28
 1004 -29 1004 -29 945 -33 c 128,-1,29
 886 -37 886 -37 843.5 -38 c 128,-1,4
 801 -39 801 -39 740 -39 c 128,-1,5
EndSplineSet
EndChar

StartChar: one
Encoding: 49 49 20
Width: 961
GlyphClass: 2
Flags: HW
LayerCount: 2
Fore
SplineSet
41 1511 m 1,0,1
 249 1511 249 1511 388 1595 c 1,2,-1
 866 1595 l 1,3,-1
 866 0 l 1,4,-1
 262 0 l 1,5,-1
 262 1291 l 1,6,-1
 41 1291 l 1,7,-1
 41 1511 l 1,0,1
EndSplineSet
EndChar

StartChar: two
Encoding: 50 50 21
Width: 1403
GlyphClass: 2
Flags: HW
LayerCount: 2
Fore
SplineSet
76 1124 m 0,0,1
 76 1466.52095808 76 1466.52095808 332.5 1572.5 c 0,2,3
 478.927536232 1633 478.927536232 1633 760.963768116 1633 c 128,-1,4
 1043 1633 1043 1633 1196 1516 c 128,-1,5
 1349 1399 1349 1399 1349 1125 c 0,6,7
 1349 792.745454545 1349 792.745454545 1015.3582996 622.891497976 c 0,8,9
 880.166666667 554.066666667 880.166666667 554.066666667 870.083333333 550.033333333 c 128,-1,10
 860 546 860 546 835.5 534 c 0,11,12
 630 433.346938776 630 433.346938776 630 301 c 1,13,-1
 1277 301 l 1,14,-1
 1277 1 l 1,15,-1
 78 1 l 1,16,-1
 78 201 l 2,17,18
 78 527 78 527 277.5 705.5 c 0,19,20
 390.295774648 806.422535211 390.295774648 806.422535211 538.729835067 875.980863805 c 0,21,22
 695.397645858 949.397645858 695.397645858 949.397645858 738.698822929 992.698822929 c 128,-1,23
 782 1036 782 1036 782 1086 c 2,24,-1
 782 1358 l 1,25,-1
 630 1358 l 1,26,-1
 630 1064 l 1,27,-1
 78 1064 l 1,28,29
 76 1110 76 1110 76 1124 c 0,0,1
EndSplineSet
EndChar

StartChar: three
Encoding: 51 51 22
Width: 1436
GlyphClass: 2
Flags: HW
LayerCount: 2
Fore
SplineSet
716 -39 m 0,0,1
 71 -39 71 -39 71 517 c 0,2,3
 71 569 71 569 75 613 c 1,4,-1
 627 613 l 1,5,-1
 627 235 l 1,6,-1
 799 235 l 1,7,-1
 799 707 l 1,8,-1
 540 707 l 1,9,-1
 540 931 l 1,10,-1
 799 931 l 1,11,-1
 799 1361 l 1,12,-1
 627 1361 l 1,13,-1
 627 1024 l 1,14,-1
 75 1024 l 1,15,16
 72 1068 72 1068 72 1108 c 0,17,18
 72 1398.95783133 72 1398.95783133 231.855371901 1515.47891566 c 128,-1,19
 391.710743802 1632 391.710743802 1632 718.172038567 1632 c 128,-1,20
 1044.63333333 1632 1044.63333333 1632 1204.31666667 1517.25748503 c 128,-1,21
 1364 1402.51497006 1364 1402.51497006 1364 1151.45748503 c 128,-1,22
 1364 900.4 1364 900.4 1163 820 c 1,23,24
 1366 744.89 1366 744.89 1366 509.5 c 0,25,26
 1366 148.939759036 1366 148.939759036 1115 31 c 0,27,28
 966.025641026 -39 966.025641026 -39 716 -39 c 0,0,1
EndSplineSet
EndChar

StartChar: four
Encoding: 52 52 23
Width: 1459
GlyphClass: 2
Flags: HW
LayerCount: 2
Fore
SplineSet
1377 0 m 1,0,-1
 865 0 l 1,1,-1
 865 240 l 1,2,-1
 73 240 l 1,3,-1
 73 657 l 1,4,-1
 327 1595 l 1,5,-1
 900 1595 l 1,6,-1
 649 657 l 1,7,-1
 649 603 l 1,8,-1
 865 603 l 1,9,-1
 865 938 l 1,10,-1
 1377 938 l 1,11,-1
 1377 0 l 1,0,-1
EndSplineSet
EndChar

StartChar: five
Encoding: 53 53 24
Width: 1429
GlyphClass: 2
Flags: HW
LayerCount: 2
Fore
SplineSet
962.211267606 1105 m 0,0,1
 1364 1105 1364 1105 1364 569.107142857 c 0,2,3
 1364 207.440993789 1364 207.440993789 1215.5 82 c 0,4,5
 1018.10441949 -84.7440928509 1018.10441949 -84.7440928509 518 -29.5 c 0,6,7
 114.490788504 15.0736919676 114.490788504 15.0736919676 75 331 c 0,8,9
 66 398 66 398 66 474 c 1,10,-1
 616 474 l 1,11,-1
 616 236 l 1,12,-1
 797 236 l 1,13,-1
 797 838 l 1,14,-1
 616 838 l 1,15,-1
 616 655 l 1,16,-1
 83 655 l 1,17,-1
 136 1596 l 1,18,-1
 1229 1596 l 1,19,-1
 1229 1299 l 1,20,-1
 638 1299 l 1,21,-1
 604 998 l 1,22,23
 696 1105 696 1105 962.211267606 1105 c 0,0,1
EndSplineSet
EndChar

StartChar: six
Encoding: 54 54 25
Width: 1448
GlyphClass: 2
Flags: HW
LayerCount: 2
Fore
SplineSet
636 236 m 1,0,-1
 816 236 l 1,1,-1
 816 798 l 1,2,-1
 636 798 l 1,3,-1
 636 236 l 1,0,-1
800 1158 m 1,4,-1
 800 1369 l 1,5,-1
 637 1369 l 1,6,-1
 637 1068 l 1,7,-1
 761 1068 l 2,8,9
 1108.0625 1068 1108.0625 1068 1213.53125 978 c 128,-1,10
 1319 888 1319 888 1350.5 785 c 128,-1,11
 1382 682 1382 682 1382 534.5 c 128,-1,12
 1382 387 1382 387 1351.5 288 c 0,13,14
 1293.31918863 99.1508089956 1293.31918863 99.1508089956 1137.20921619 31.0796000847 c 128,-1,15
 981.099243758 -36.9916088263 981.099243758 -36.9916088263 718 -39 c 1,16,17
 237.93 -39 237.93 -39 126 234 c 0,18,19
 85 334 85 334 85 476 c 2,20,-1
 85 1056 l 2,21,22
 85 1379.28915663 85 1379.28915663 245.114503817 1505.64457831 c 128,-1,23
 405.229007634 1632 405.229007634 1632 672.017729623 1632 c 0,24,25
 1122.2962963 1632 1122.2962963 1632 1252 1477.5 c 0,26,27
 1329 1385.77941176 1329 1385.77941176 1329 1237 c 1,28,-1
 1331 1158 l 1,29,-1
 800 1158 l 1,4,-1
EndSplineSet
EndChar

StartChar: seven
Encoding: 55 55 26
Width: 991
GlyphClass: 2
Flags: HW
LayerCount: 2
Fore
SplineSet
942 1595 m 1,0,-1
 942 1351 l 1,1,-1
 716 0 l 1,2,-1
 112 0 l 1,3,-1
 334 1354 l 1,4,-1
 40 1354 l 1,5,-1
 40 1595 l 1,6,-1
 942 1595 l 1,0,-1
EndSplineSet
EndChar

StartChar: eight
Encoding: 56 56 27
Width: 1427
GlyphClass: 2
Flags: HW
LayerCount: 2
Fore
SplineSet
1149 864 m 1,0,1
 1368 817.894736842 1368 817.894736842 1368 510.018796992 c 128,-1,2
 1368 202.142857143 1368 202.142857143 1226.75 81.0714285714 c 128,-1,3
 1085.5 -40 1085.5 -40 697.707264957 -40 c 128,-1,4
 309.914529915 -40 309.914529915 -40 186.957264957 99.6699029126 c 128,-1,5
 64 239.339805825 64 239.339805825 64 525.169902913 c 128,-1,6
 64 811 64 811 251 864 c 1,7,8
 119 911 119 911 119 1181 c 0,9,10
 119 1559.02259887 119 1559.02259887 520.5 1618 c 0,11,12
 609 1631 609 1631 733 1631 c 0,13,14
 994.861386139 1631 994.861386139 1631 1152.43069307 1532.15217391 c 128,-1,15
 1310 1433.30434783 1310 1433.30434783 1310 1172.15217391 c 128,-1,16
 1310 911 1310 911 1149 864 c 1,0,1
640 1355 m 1,17,-1
 640 960 l 1,18,-1
 794 960 l 1,19,-1
 794 1355 l 1,20,-1
 640 1355 l 1,17,-1
628 235 m 1,21,-1
 794 235 l 1,22,-1
 794 720 l 1,23,-1
 628 720 l 1,24,-1
 628 235 l 1,21,-1
EndSplineSet
EndChar

StartChar: nine
Encoding: 57 57 28
Width: 1445
GlyphClass: 2
Flags: HW
LayerCount: 2
Fore
SplineSet
799 1358 m 1,0,-1
 628 1358 l 1,1,-1
 628 779 l 1,2,-1
 799 779 l 1,3,-1
 799 1358 l 1,0,-1
576 508 m 2,4,5
 282.344827586 508 282.344827586 508 175.172413793 643.130434783 c 128,-1,6
 68 778.260869565 68 778.260869565 68 975.130434783 c 128,-1,7
 68 1172 68 1172 84 1252.5 c 128,-1,8
 100 1333 100 1333 128 1391.5 c 128,-1,9
 156 1450 156 1450 201 1492 c 0,10,11
 347.785714286 1629 347.785714286 1629 694.016129032 1629 c 0,12,13
 1113.33898305 1629 1113.33898305 1629 1239.16949153 1486.23076923 c 128,-1,14
 1365 1343.46153846 1365 1343.46153846 1365 1116 c 2,15,-1
 1365 520 l 2,16,17
 1365 148.025 1365 148.025 1127 32 c 0,18,19
 979.307692308 -40 979.307692308 -40 733 -40 c 0,20,21
 125 -40 125 -40 115 328 c 0,22,23
 114 362 114 362 114 424 c 1,24,-1
 645 424 l 1,25,-1
 645 225 l 1,26,-1
 803 225 l 1,27,-1
 803 508 l 1,28,-1
 576 508 l 2,4,5
EndSplineSet
EndChar

StartChar: colon
Encoding: 58 58 29
Width: 691
GlyphClass: 2
Flags: HW
LayerCount: 2
Fore
SplineSet
141 323 m 128,-1,1
 141 422 141 422 201.5 477.5 c 128,-1,2
 262 533 262 533 345 533 c 128,-1,3
 428 533 428 533 488.5 477.5 c 128,-1,4
 549 422 549 422 549 323 c 128,-1,5
 549 224 549 224 488.5 168.5 c 128,-1,6
 428 113 428 113 345 113 c 128,-1,7
 262 113 262 113 201.5 168.5 c 128,-1,0
 141 224 141 224 141 323 c 128,-1,1
141 1133 m 128,-1,9
 141 1232 141 1232 201.5 1287.5 c 128,-1,10
 262 1343 262 1343 345 1343 c 128,-1,11
 428 1343 428 1343 488.5 1287.5 c 128,-1,12
 549 1232 549 1232 549 1133 c 128,-1,13
 549 1034 549 1034 488.5 978.5 c 128,-1,14
 428 923 428 923 345 923 c 128,-1,15
 262 923 262 923 201.5 978.5 c 128,-1,8
 141 1034 141 1034 141 1133 c 128,-1,9
EndSplineSet
EndChar

StartChar: semicolon
Encoding: 59 59 30
Width: 710
GlyphClass: 2
Flags: HW
LayerCount: 2
Fore
SplineSet
141 324 m 128,-1,1
 141 417 141 417 201.5 470 c 128,-1,2
 262 523 262 523 355 523 c 128,-1,3
 448 523 448 523 501.5 455 c 128,-1,4
 555 387 555 387 555 300 c 128,-1,5
 555 213 555 213 531.5 142.5 c 128,-1,6
 508 72 508 72 465 13 c 0,7,8
 368.06779661 -120 368.06779661 -120 208 -120 c 0,9,10
 186 -120 186 -120 164 -117 c 1,11,-1
 164 -8 l 1,12,13
 311.452894438 -5.65947786606 311.452894438 -5.65947786606 320 114 c 1,14,15
 245 122 245 122 193 176.5 c 128,-1,0
 141 231 141 231 141 324 c 128,-1,1
141 1133 m 128,-1,17
 141 1232 141 1232 201.5 1287.5 c 128,-1,18
 262 1343 262 1343 345 1343 c 128,-1,19
 428 1343 428 1343 488.5 1287.5 c 128,-1,20
 549 1232 549 1232 549 1133 c 128,-1,21
 549 1034 549 1034 488.5 978.5 c 128,-1,22
 428 923 428 923 345 923 c 128,-1,23
 262 923 262 923 201.5 978.5 c 128,-1,16
 141 1034 141 1034 141 1133 c 128,-1,17
EndSplineSet
EndChar

StartChar: less
Encoding: 60 60 31
Width: 1036
GlyphClass: 2
Flags: HW
LayerCount: 2
Fore
SplineSet
75 1098 m 1,0,-1
 951 1597 l 1,1,-1
 951 1092 l 1,2,-1
 350 797 l 1,3,-1
 951 504 l 1,4,-1
 951 0 l 1,5,-1
 75 489 l 1,6,-1
 75 1098 l 1,0,-1
EndSplineSet
EndChar

StartChar: equal
Encoding: 61 61 32
Width: 1008
GlyphClass: 2
Flags: HW
LayerCount: 2
Fore
SplineSet
923 336 m 1,0,-1
 923 0 l 1,1,-1
 89 0 l 1,2,-1
 89 336 l 1,3,-1
 923 336 l 1,0,-1
923 897 m 1,4,-1
 923 561 l 1,5,-1
 89 561 l 1,6,-1
 89 897 l 1,7,-1
 923 897 l 1,4,-1
EndSplineSet
EndChar

StartChar: greater
Encoding: 62 62 33
Width: 1035
GlyphClass: 2
Flags: HW
LayerCount: 2
Fore
SplineSet
963 489 m 1,0,-1
 86 0 l 1,1,-1
 86 504 l 1,2,-1
 687 797 l 1,3,-1
 86 1092 l 1,4,-1
 86 1597 l 1,5,-1
 963 1098 l 1,6,-1
 963 489 l 1,0,-1
EndSplineSet
EndChar

StartChar: question
Encoding: 63 63 34
Width: 906
GlyphClass: 2
Flags: HW
LayerCount: 2
Fore
SplineSet
441 1150 m 0,0,1
 441 1264 441 1264 296.5 1264 c 0,2,3
 221 1264 221 1264 105 1215 c 1,4,-1
 69 1562 l 1,5,6
 288 1632 288 1632 412.5 1632 c 128,-1,7
 537 1632 537 1632 613 1614 c 0,8,9
 873 1552.42105263 873 1552.42105263 873 1334.56451613 c 0,10,11
 873 1194.42666667 873 1194.42666667 812.5 1120.21333333 c 128,-1,12
 752 1046 752 1046 706.5 1001 c 128,-1,13
 661 956 661 956 613.5 909 c 128,-1,14
 566 862 566 862 525 813 c 128,-1,15
 484 764 484 764 454.5 700.5 c 128,-1,16
 425 637 425 637 417.5 573.5 c 128,-1,17
 410 510 410 510 352 510 c 128,-1,18
 294 510 294 510 294 585.5 c 0,19,20
 294 735.166666667 294 735.166666667 360.668831169 896.283008658 c 0,21,22
 441 1090.41666667 441 1090.41666667 441 1150 c 0,0,1
153 171 m 128,-1,24
 153 270 153 270 213.5 325.5 c 128,-1,25
 274 381 274 381 357 381 c 128,-1,26
 440 381 440 381 500.5 325.5 c 128,-1,27
 561 270 561 270 561 171 c 128,-1,28
 561 72 561 72 500.5 16.5 c 128,-1,29
 440 -39 440 -39 357 -39 c 128,-1,30
 274 -39 274 -39 213.5 16.5 c 128,-1,23
 153 72 153 72 153 171 c 128,-1,24
EndSplineSet
EndChar

StartChar: at
Encoding: 64 64 35
Width: 2198
GlyphClass: 2
Flags: HW
LayerCount: 2
Fore
SplineSet
612 493 m 0,0,1
 612 836 612 836 935 836 c 0,2,3
 1100 836 1100 836 1175 788 c 1,4,-1
 1175 1022 l 1,5,-1
 1116 1022 l 1,6,-1
 1116 887 l 1,7,-1
 664 887 l 1,8,-1
 663 956 l 1,9,10
 663 1161 663 1161 850.5 1216.5 c 0,11,12
 956.918918919 1248 956.918918919 1248 1138.45945946 1248 c 128,-1,13
 1320 1248 1320 1248 1420 1209 c 0,14,15
 1607 1136.07 1607 1136.07 1607 837 c 2,16,-1
 1607 330 l 1,17,-1
 1777 330 l 1,18,-1
 1777 832 l 2,19,20
 1777 1156.02531646 1777 1156.02531646 1682.82315589 1260.93116812 c 128,-1,21
 1588.64631178 1365.83701979 1588.64631178 1365.83701979 1467.91406498 1394.9185099 c 128,-1,22
 1347.18181818 1424 1347.18181818 1424 1176.09090909 1424 c 128,-1,23
 1005 1424 1005 1424 894.5 1406 c 128,-1,24
 784 1388 784 1388 703.5 1347.5 c 0,25,26
 428 1208.89440994 428 1208.89440994 428 741.420634921 c 0,27,28
 428 366.736842105 428 366.736842105 480 248.368421053 c 128,-1,29
 532 130 532 130 587 79 c 0,30,31
 734.745098039 -58 734.745098039 -58 1222 -58 c 0,32,33
 1367 -58 1367 -58 1704 22 c 1,34,-1
 1762 -233 l 1,35,36
 1519 -393 1519 -393 1240 -393 c 0,37,38
 755.792682927 -393 755.792682927 -393 540.086975263 -291.926468409 c 128,-1,39
 324.381267599 -190.852936818 324.381267599 -190.852936818 199.190633799 11.1873929773 c 128,-1,40
 74 213.227722772 74 213.227722772 74 685.891967895 c 128,-1,41
 74 1158.55621302 74 1158.55621302 242.386420056 1399.67759558 c 0,42,43
 480.747933884 1741 480.747933884 1741 1170.5 1741 c 0,44,45
 1918.59021407 1741 1918.59021407 1741 2077 1278.5 c 0,46,47
 2133 1115 2133 1115 2133 823.723214286 c 0,48,49
 2133 306.338842975 2133 306.338842975 1883.5 162 c 0,50,51
 1755.58571429 88 1755.58571429 88 1523.29285714 90.5 c 128,-1,52
 1291 93 1291 93 1202 239 c 1,53,54
 1101 113 1101 113 943 113 c 0,55,56
 622.605263158 113 622.605263158 113 613 405 c 0,57,58
 612 435 612 435 612 493 c 0,0,1
1081 641 m 1,59,-1
 1081 336 l 1,60,-1
 1174 336 l 1,61,-1
 1174 641 l 1,62,-1
 1081 641 l 1,59,-1
EndSplineSet
EndChar

StartChar: A
Encoding: 65 65 36
Width: 1565
GlyphClass: 2
Flags: HW
LayerCount: 2
Fore
SplineSet
677 366 m 1,0,-1
 622 0 l 1,1,-1
 36 0 l 1,2,-1
 328 1595 l 1,3,-1
 1235 1595 l 1,4,-1
 1532 0 l 1,5,-1
 945 0 l 1,6,-1
 891 366 l 1,7,-1
 677 366 l 1,0,-1
816 1085 m 1,8,-1
 801 1283 l 1,9,-1
 762 1283 l 1,10,-1
 749 1085 l 1,11,-1
 695 576 l 1,12,-1
 873 576 l 1,13,-1
 816 1085 l 1,8,-1
EndSplineSet
EndChar

StartChar: B
Encoding: 66 66 37
Width: 1533
GlyphClass: 2
Flags: HW
LayerCount: 2
Fore
SplineSet
1475 460 m 0,0,1
 1475 244.054054054 1475 244.054054054 1404.30520007 141.833194703 c 128,-1,2
 1333.61040015 39.6123353518 1333.61040015 39.6123353518 1201.30520007 19.8061676759 c 128,-1,3
 1069 0 1069 0 948 0 c 2,4,-1
 105 0 l 1,5,-1
 105 1595 l 1,6,-1
 952 1595 l 2,7,8
 1294.5 1595 1294.5 1595 1384.5 1439 c 0,9,10
 1434 1353.2 1434 1353.2 1434 1210.1 c 0,11,12
 1434 927.407079646 1434 927.407079646 1223 905 c 2,13,-1
 1111 893 l 1,14,-1
 1111 854 l 1,15,-1
 1223 841 l 2,16,17
 1475 812 1475 812 1475 460 c 0,0,1
709 235 m 1,18,-1
 882 235 l 1,19,-1
 882 770 l 1,20,-1
 709 770 l 1,21,-1
 709 235 l 1,18,-1
709 951 m 1,22,-1
 882 951 l 1,23,-1
 882 1358 l 1,24,-1
 709 1358 l 1,25,-1
 709 951 l 1,22,-1
EndSplineSet
EndChar

StartChar: C
Encoding: 67 67 38
Width: 1540
GlyphClass: 2
Flags: HW
LayerCount: 2
Fore
SplineSet
90 1226 m 2,0,1
 90 1632 90 1632 748.35 1632 c 0,2,3
 1137.3442623 1632 1137.3442623 1632 1246.67213115 1573.5 c 128,-1,4
 1356 1515 1356 1515 1414 1446.38028169 c 128,-1,5
 1472 1377.76056338 1472 1377.76056338 1472 1227 c 2,6,-1
 1472 979 l 1,7,-1
 868 979 l 1,8,-1
 868 1356 l 1,9,-1
 695 1356 l 1,10,-1
 695 233 l 1,11,-1
 868 233 l 1,12,-1
 868 614 l 1,13,-1
 1472 614 l 1,14,-1
 1472 369 l 2,15,16
 1472 -40 1472 -40 826.3 -40 c 0,17,18
 452.193548387 -40 452.193548387 -40 335.096774194 20.5 c 128,-1,19
 218 81 218 81 154 149.923076923 c 128,-1,20
 90 218.846153846 90 218.846153846 90 370 c 2,21,-1
 90 1226 l 2,0,1
EndSplineSet
EndChar

StartChar: D
Encoding: 68 68 39
Width: 1555
GlyphClass: 2
Flags: HW
LayerCount: 2
Fore
SplineSet
708 235 m 1,0,-1
 881 235 l 1,1,-1
 881 1358 l 1,2,-1
 708 1358 l 1,3,-1
 708 235 l 1,0,-1
1485 1204 m 2,4,-1
 1485 393 l 2,5,6
 1485 136.979166667 1485 136.979166667 1288 59 c 0,7,8
 1138.94736842 3.5527136788e-14 1138.94736842 3.5527136788e-14 859 0 c 2,9,-1
 103 0 l 1,10,-1
 103 1595 l 1,11,-1
 859 1595 l 2,12,13
 1297.13580247 1595 1297.13580247 1595 1416.5 1436.5 c 0,14,15
 1485 1345.54098361 1485 1345.54098361 1485 1204 c 2,4,-1
EndSplineSet
EndChar

StartChar: E
Encoding: 69 69 40
Width: 1114
GlyphClass: 2
Flags: HW
LayerCount: 2
Fore
SplineSet
1049 1595 m 1,0,-1
 1049 1346 l 1,1,-1
 708 1346 l 1,2,-1
 708 961 l 1,3,-1
 1026 961 l 1,4,-1
 1026 711 l 1,5,-1
 708 711 l 1,6,-1
 708 251 l 1,7,-1
 1049 251 l 1,8,-1
 1049 0 l 1,9,-1
 104 0 l 1,10,-1
 104 1595 l 1,11,-1
 1049 1595 l 1,0,-1
EndSplineSet
EndChar

StartChar: F
Encoding: 70 70 41
Width: 1102
GlyphClass: 2
Flags: HW
LayerCount: 2
Fore
SplineSet
1049 1595 m 1,0,-1
 1049 1346 l 1,1,-1
 708 1346 l 1,2,-1
 708 954 l 1,3,-1
 1026 954 l 1,4,-1
 1026 705 l 1,5,-1
 708 705 l 1,6,-1
 708 0 l 1,7,-1
 104 0 l 1,8,-1
 104 1595 l 1,9,-1
 1049 1595 l 1,0,-1
EndSplineSet
EndChar

StartChar: G
Encoding: 71 71 42
Width: 1547
GlyphClass: 2
Flags: HW
LayerCount: 2
Fore
SplineSet
911 124 m 1,0,1
 811 -39 811 -39 586.446808511 -39 c 0,2,3
 90 -39 90 -39 90 359 c 2,4,-1
 90 1228 l 2,5,6
 90 1563.92 90 1563.92 480.87867911 1613.43129935 c 0,7,8
 627.473684211 1632 627.473684211 1632 782 1632 c 0,9,10
 1472 1632 1472 1632 1472 1227 c 2,11,-1
 1472 979 l 1,12,-1
 867 979 l 1,13,-1
 867 1358 l 1,14,-1
 694 1358 l 1,15,-1
 694 235 l 1,16,-1
 867 235 l 1,17,-1
 867 538 l 1,18,-1
 782 538 l 1,19,-1
 782 769 l 1,20,-1
 1472 769 l 1,21,-1
 1472 0 l 1,22,-1
 985 0 l 1,23,-1
 911 124 l 1,0,1
EndSplineSet
EndChar

StartChar: H
Encoding: 72 72 43
Width: 1585
GlyphClass: 2
Flags: HW
LayerCount: 2
Fore
SplineSet
1505 1595 m 1,0,-1
 1505 0 l 1,1,-1
 901 0 l 1,2,-1
 901 688 l 1,3,-1
 708 688 l 1,4,-1
 708 0 l 1,5,-1
 104 0 l 1,6,-1
 104 1595 l 1,7,-1
 708 1595 l 1,8,-1
 708 908 l 1,9,-1
 901 908 l 1,10,-1
 901 1595 l 1,11,-1
 1505 1595 l 1,0,-1
EndSplineSet
EndChar

StartChar: I
Encoding: 73 73 44
Width: 788
GlyphClass: 2
Flags: HW
LayerCount: 2
Fore
SplineSet
708 1595 m 1,0,-1
 708 0 l 1,1,-1
 104 0 l 1,2,-1
 104 1595 l 1,3,-1
 708 1595 l 1,0,-1
EndSplineSet
EndChar

StartChar: J
Encoding: 74 74 45
Width: 908
GlyphClass: 2
Flags: HW
LayerCount: 2
Fore
SplineSet
831 274 m 2,0,1
 831 -159 831 -159 308 -159 c 0,2,3
 192 -159 192 -159 54 -134 c 1,4,-1
 54 138 l 1,5,-1
 227 138 l 1,6,-1
 227 1594 l 1,7,-1
 831 1594 l 1,8,-1
 831 274 l 2,0,1
EndSplineSet
EndChar

StartChar: K
Encoding: 75 75 46
Width: 1689
GlyphClass: 2
Flags: HW
LayerCount: 2
Fore
SplineSet
709 0 m 1,0,-1
 104 0 l 1,1,-1
 104 1595 l 1,2,-1
 709 1595 l 1,3,-1
 709 994 l 1,4,-1
 699 850 l 1,5,-1
 736 844 l 1,6,-1
 773 985 l 1,7,-1
 1002 1595 l 1,8,-1
 1621 1595 l 1,9,-1
 1279 844 l 1,10,-1
 1662 0 l 1,11,-1
 1025 0 l 1,12,-1
 766 696 l 1,13,-1
 699 655 l 1,14,-1
 709 492 l 1,15,-1
 709 0 l 1,0,-1
EndSplineSet
EndChar

StartChar: L
Encoding: 76 76 47
Width: 1094
GlyphClass: 2
Flags: HW
LayerCount: 2
Fore
SplineSet
104 0 m 1,0,-1
 104 1595 l 1,1,-1
 708 1595 l 1,2,-1
 708 241 l 1,3,-1
 1049 241 l 1,4,-1
 1049 0 l 1,5,-1
 104 0 l 1,0,-1
EndSplineSet
EndChar

StartChar: M
Encoding: 77 77 48
Width: 1909
GlyphClass: 2
Flags: HW
LayerCount: 2
Fore
SplineSet
1316 958 m 1,0,-1
 1179 0 l 1,1,-1
 752 0 l 1,2,-1
 627 958 l 1,3,-1
 587 958 l 1,4,-1
 599 689 l 1,5,-1
 557 0 l 1,6,-1
 76 0 l 1,7,-1
 150 1595 l 1,8,-1
 830 1595 l 1,9,-1
 930 880 l 1,10,-1
 943 611 l 1,11,-1
 982 611 l 1,12,-1
 997 880 l 1,13,-1
 1097 1595 l 1,14,-1
 1778 1595 l 1,15,-1
 1852 0 l 1,16,-1
 1386 0 l 1,17,-1
 1344 689 l 1,18,-1
 1356 958 l 1,19,-1
 1316 958 l 1,0,-1
EndSplineSet
EndChar

StartChar: N
Encoding: 78 78 49
Width: 1576
GlyphClass: 2
Flags: HW
LayerCount: 2
Fore
SplineSet
552 0 m 1,0,-1
 104 0 l 1,1,-1
 104 1595 l 1,2,-1
 621 1595 l 1,3,-1
 1052 834 l 1,4,-1
 1052 1595 l 1,5,-1
 1496 1595 l 1,6,-1
 1496 0 l 1,7,-1
 957 0 l 1,8,-1
 552 711 l 1,9,-1
 552 0 l 1,0,-1
EndSplineSet
EndChar

StartChar: O
Encoding: 79 79 50
Width: 1542
GlyphClass: 2
Flags: HW
LayerCount: 2
Fore
SplineSet
694 235 m 1,0,-1
 867 235 l 1,1,-1
 867 1362 l 1,2,-1
 694 1362 l 1,3,-1
 694 235 l 1,0,-1
89 1226 m 2,4,5
 89 1631 89 1631 738.368421053 1631 c 0,6,7
 1110.86885246 1631 1110.86885246 1631 1226.93442623 1572 c 128,-1,8
 1343 1513 1343 1513 1407 1444.8974359 c 128,-1,9
 1471 1376.79487179 1471 1376.79487179 1471 1226 c 2,10,-1
 1471 370 l 2,11,12
 1471 29.625 1471 29.625 1077.05376344 -19.6182795699 c 0,13,14
 363.582772544 -108.802153432 363.582772544 -108.802153432 168.5 122 c 0,15,16
 89 216.056338028 89 216.056338028 89 370 c 2,17,-1
 89 1226 l 2,4,5
EndSplineSet
EndChar

StartChar: P
Encoding: 80 80 51
Width: 1550
GlyphClass: 2
Flags: HW
LayerCount: 2
Fore
SplineSet
104 1595 m 1,0,-1
 859 1595 l 2,1,2
 1297.13580247 1595 1297.13580247 1595 1416.5 1436.5 c 0,3,4
 1485 1345.54098361 1485 1345.54098361 1485 1204 c 2,5,-1
 1485 793 l 2,6,7
 1485 617.063492063 1485 617.063492063 1407.36433013 544.357071074 c 128,-1,8
 1329.72866026 471.650650085 1329.72866026 471.650650085 1265.86433013 450.825325042 c 0,9,10
 1116.13333333 402 1116.13333333 402 860 402 c 2,11,-1
 708 402 l 1,12,-1
 708 0 l 1,13,-1
 104 0 l 1,14,-1
 104 1595 l 1,0,-1
707 628 m 1,15,-1
 880 628 l 1,16,-1
 880 1362 l 1,17,-1
 707 1362 l 1,18,-1
 707 628 l 1,15,-1
EndSplineSet
EndChar

StartChar: Q
Encoding: 81 81 52
Width: 1542
GlyphClass: 2
Flags: HW
LayerCount: 2
Fore
SplineSet
90 1226 m 2,0,1
 90 1632 90 1632 738.2 1632 c 0,2,3
 1113.67741935 1632 1113.67741935 1632 1228.83870968 1572.5 c 128,-1,4
 1344 1513 1344 1513 1408 1444.8974359 c 128,-1,5
 1472 1376.79487179 1472 1376.79487179 1472 1226 c 2,6,-1
 1472 370 l 2,7,8
 1472 187.742857143 1472 187.742857143 1371.82313278 104.739167161 c 128,-1,9
 1271.64626556 21.7354771784 1271.64626556 21.7354771784 1099 -12 c 1,10,11
 1103 -79 1103 -79 1221 -79 c 128,-1,12
 1339 -79 1339 -79 1453 -57 c 1,13,-1
 1393 -379 l 1,14,15
 1270 -391 1270 -391 1102 -391 c 0,16,17
 717.204081633 -391 717.204081633 -391 652 -36 c 1,18,19
 190.076229093 -12.6114546376 190.076229093 -12.6114546376 111 226.5 c 0,20,21
 90 290 90 290 90 370 c 2,22,-1
 90 1226 l 2,0,1
695 235 m 1,23,-1
 868 235 l 1,24,-1
 868 1362 l 1,25,-1
 695 1362 l 1,26,-1
 695 235 l 1,23,-1
EndSplineSet
EndChar

StartChar: R
Encoding: 82 82 53
Width: 1553
GlyphClass: 2
Flags: HW
LayerCount: 2
Fore
SplineSet
1487 437 m 2,0,-1
 1487 0 l 1,1,-1
 881 0 l 1,2,-1
 881 649 l 1,3,-1
 708 649 l 1,4,-1
 708 0 l 1,5,-1
 104 0 l 1,6,-1
 104 1595 l 1,7,-1
 1017 1595 l 2,8,9
 1239.70652174 1595 1239.70652174 1595 1355.35326087 1507.07024793 c 128,-1,10
 1471 1419.14049587 1471 1419.14049587 1471 1190 c 0,11,12
 1471 827 1471 827 1243 805 c 2,13,-1
 1111 792 l 1,14,-1
 1111 753 l 1,15,-1
 1243 738 l 2,16,17
 1487 710.175438596 1487 710.175438596 1487 437 c 2,0,-1
708 881 m 1,18,-1
 881 881 l 1,19,-1
 881 1358 l 1,20,-1
 708 1358 l 1,21,-1
 708 881 l 1,18,-1
EndSplineSet
EndChar

StartChar: S
Encoding: 83 83 54
Width: 1469
GlyphClass: 2
Flags: HW
LayerCount: 2
Fore
SplineSet
1425 516 m 0,0,1
 1425 369 1425 369 1387.5 257 c 128,-1,2
 1350 145 1350 145 1264.5 79 c 128,-1,3
 1179 13 1179 13 1056.5 -13 c 128,-1,4
 934 -39 934 -39 806.5 -39 c 128,-1,5
 679 -39 679 -39 625 -36.5 c 128,-1,6
 571 -34 571 -34 501.5 -25 c 128,-1,7
 432 -16 432 -16 379 0 c 0,8,9
 103.775590551 83.0866141732 103.775590551 83.0866141732 79 345 c 0,10,11
 73 413 73 413 73 488 c 1,12,-1
 646 488 l 1,13,-1
 646 235 l 1,14,-1
 819 235 l 1,15,-1
 819 485 l 2,16,17
 819 531.384615385 819 531.384615385 762.279527559 553.200181708 c 128,-1,18
 705.559055118 575.015748031 705.559055118 575.015748031 633.779527559 596.007874016 c 128,-1,19
 562 617 562 617 525.5 628 c 128,-1,20
 489 639 489 639 439.5 656 c 128,-1,21
 390 673 390 673 355 688.5 c 128,-1,22
 320 704 320 704 278.5 727.5 c 128,-1,23
 237 751 237 751 208.5 776.5 c 0,24,25
 67 903.105263158 67 903.105263158 67 1053.05263158 c 128,-1,26
 67 1203 67 1203 84 1277.5 c 128,-1,27
 101 1352 101 1352 131 1406 c 128,-1,28
 161 1460 161 1460 207.5 1500 c 0,29,30
 359.7875 1631 359.7875 1631 582.89375 1631 c 128,-1,31
 806 1631 806 1631 874 1626.5 c 128,-1,32
 942 1622 942 1622 1010.5 1610 c 128,-1,33
 1079 1598 1079 1598 1128.5 1577 c 0,34,35
 1353 1481.75757576 1353 1481.75757576 1353 1180 c 1,36,-1
 817 1180 l 1,37,-1
 817 1358 l 1,38,-1
 644 1358 l 1,39,-1
 644 1125 l 1,40,-1
 647 1123 l 1,41,42
 647 1086.66666667 647 1086.66666667 812.641509434 1059.05974843 c 128,-1,43
 978.283018868 1031.45283019 978.283018868 1031.45283019 1145.64150943 973.726415094 c 0,44,45
 1425 877.368207441 1425 877.368207441 1425 516 c 0,0,1
EndSplineSet
EndChar

StartChar: T
Encoding: 84 84 55
Width: 1324
GlyphClass: 2
Flags: HW
LayerCount: 2
Fore
SplineSet
1321 1595 m 1,0,-1
 1321 1326 l 1,1,-1
 965 1326 l 1,2,-1
 965 0 l 1,3,-1
 361 0 l 1,4,-1
 361 1326 l 1,5,-1
 8 1326 l 1,6,-1
 8 1595 l 1,7,-1
 1321 1595 l 1,0,-1
EndSplineSet
EndChar

StartChar: U
Encoding: 85 85 56
Width: 1556
GlyphClass: 2
Flags: HW
LayerCount: 2
Fore
SplineSet
1479 370 m 2,0,1
 1479 -39 1479 -39 826.15 -39 c 0,2,3
 451.338709677 -39 451.338709677 -39 337.169354839 21.5 c 128,-1,4
 223 82 223 82 160 150.727272727 c 128,-1,5
 97 219.454545455 97 219.454545455 97 371 c 2,6,-1
 97 1595 l 1,7,-1
 701 1595 l 1,8,-1
 701 234 l 1,9,-1
 874 234 l 1,10,-1
 874 1594 l 1,11,-1
 1479 1594 l 1,12,-1
 1479 370 l 2,0,1
EndSplineSet
EndChar

StartChar: V
Encoding: 86 86 57
Width: 1526
GlyphClass: 2
Flags: HW
LayerCount: 2
Fore
SplineSet
733 681 m 1,0,-1
 746 412 l 1,1,-1
 785 412 l 1,2,-1
 800 681 l 1,3,-1
 912 1595 l 1,4,-1
 1504 1595 l 1,5,-1
 1186 0 l 1,6,-1
 344 0 l 1,7,-1
 26 1595 l 1,8,-1
 617 1595 l 1,9,-1
 733 681 l 1,0,-1
EndSplineSet
EndChar

StartChar: W
Encoding: 87 87 58
Width: 2108
GlyphClass: 2
Flags: HW
LayerCount: 2
Fore
SplineSet
1401 853 m 1,0,-1
 1418 584 l 1,1,-1
 1450 586 l 1,2,-1
 1544 1595 l 1,3,-1
 2075 1595 l 1,4,-1
 1836 0 l 1,5,-1
 1174 0 l 1,6,-1
 1076 628 l 1,7,-1
 1061 927 l 1,8,-1
 1022 927 l 1,9,-1
 1009 628 l 1,10,-1
 909 0 l 1,11,-1
 267 0 l 1,12,-1
 38 1595 l 1,13,-1
 621 1595 l 1,14,-1
 666 584 l 1,15,-1
 705 584 l 1,16,-1
 721 853 l 1,17,-1
 805 1595 l 1,18,-1
 1319 1595 l 1,19,-1
 1401 853 l 1,0,-1
EndSplineSet
EndChar

StartChar: X
Encoding: 88 88 59
Width: 1539
GlyphClass: 2
Flags: HW
LayerCount: 2
Fore
SplineSet
590 0 m 1,0,-1
 22 0 l 1,1,-1
 349 782 l 1,2,-1
 22 1595 l 1,3,-1
 594 1595 l 1,4,-1
 740 1157 l 1,5,-1
 757 1041 l 1,6,-1
 786 1041 l 1,7,-1
 803 1157 l 1,8,-1
 954 1595 l 1,9,-1
 1525 1595 l 1,10,-1
 1195 782 l 1,11,-1
 1525 0 l 1,12,-1
 950 0 l 1,13,-1
 799 438 l 1,14,-1
 782 554 l 1,15,-1
 753 554 l 1,16,-1
 736 438 l 1,17,-1
 590 0 l 1,0,-1
EndSplineSet
EndChar

StartChar: Y
Encoding: 89 89 60
Width: 1552
GlyphClass: 2
Flags: HW
LayerCount: 2
Fore
SplineSet
1082 0 m 1,0,-1
 477 0 l 1,1,-1
 477 459 l 1,2,-1
 32 1595 l 1,3,-1
 592 1595 l 1,4,-1
 746 1021 l 1,5,-1
 763 815 l 1,6,-1
 792 815 l 1,7,-1
 809 1021 l 1,8,-1
 968 1595 l 1,9,-1
 1524 1595 l 1,10,-1
 1082 449 l 1,11,-1
 1082 0 l 1,0,-1
EndSplineSet
EndChar

StartChar: Z
Encoding: 90 90 61
Width: 1138
GlyphClass: 2
Flags: HW
LayerCount: 2
Fore
SplineSet
1082 294 m 1,0,-1
 1082 0 l 1,1,-1
 56 0 l 1,2,-1
 440 1304 l 1,3,-1
 68 1304 l 1,4,-1
 68 1595 l 1,5,-1
 1092 1595 l 1,6,-1
 745 294 l 1,7,-1
 1082 294 l 1,0,-1
EndSplineSet
EndChar

StartChar: bracketleft
Encoding: 91 91 62
Width: 1111
GlyphClass: 2
Flags: HW
LayerCount: 2
Fore
SplineSet
100 1819 m 1,0,-1
 1075 1819 l 1,1,-1
 1075 1578 l 1,2,-1
 734 1578 l 1,3,-1
 734 -77 l 1,4,-1
 1075 -77 l 1,5,-1
 1075 -319 l 1,6,-1
 100 -319 l 1,7,-1
 100 1819 l 1,0,-1
EndSplineSet
EndChar

StartChar: backslash
Encoding: 92 92 63
Width: 1053
GlyphClass: 2
Flags: HW
LayerCount: 2
Fore
SplineSet
587 1595 m 1,0,-1
 939 0 l 1,1,-1
 464 0 l 1,2,-1
 113 1595 l 1,3,-1
 587 1595 l 1,0,-1
EndSplineSet
EndChar

StartChar: bracketright
Encoding: 93 93 64
Width: 1108
GlyphClass: 2
Flags: HW
LayerCount: 2
Fore
SplineSet
1010 -319 m 1,0,-1
 35 -319 l 1,1,-1
 35 -77 l 1,2,-1
 376 -77 l 1,3,-1
 376 1578 l 1,4,-1
 35 1578 l 1,5,-1
 35 1819 l 1,6,-1
 1010 1819 l 1,7,-1
 1010 -319 l 1,0,-1
EndSplineSet
EndChar

StartChar: asciicircum
Encoding: 94 94 65
Width: 1222
GlyphClass: 2
Flags: HW
LayerCount: 2
Fore
SplineSet
896 676 m 1,0,-1
 1179 61 l 1,1,-1
 698 61 l 1,2,-1
 610 381 l 1,3,-1
 526 61 l 1,4,-1
 46 61 l 1,5,-1
 318 676 l 1,6,-1
 896 676 l 1,0,-1
EndSplineSet
EndChar

StartChar: underscore
Encoding: 95 95 66
Width: 1042
GlyphClass: 2
Flags: HW
LayerCount: 2
Fore
SplineSet
967 1 m 1,0,-1
 967 -435 l 1,1,-1
 78 -435 l 1,2,-1
 78 1 l 1,3,-1
 967 1 l 1,0,-1
EndSplineSet
EndChar

StartChar: grave
Encoding: 96 96 67
Width: 873
GlyphClass: 2
Flags: HW
LayerCount: 2
Fore
SplineSet
848 1424.5 m 0,0,1
 848 1371 848 1371 789.5 1371 c 0,2,3
 767 1371 767 1371 734.5 1381.5 c 128,-1,4
 702 1392 702 1392 592 1423 c 0,5,6
 237.888213089 1522.79513995 237.888213089 1522.79513995 139.444106545 1580.35322725 c 128,-1,7
 41 1637.91131456 41 1637.91131456 41 1731.45565728 c 128,-1,8
 41 1825 41 1825 90.5 1877.5 c 128,-1,9
 140 1930 140 1930 208 1930 c 128,-1,10
 276 1930 276 1930 325.5 1901.5 c 128,-1,11
 375 1873 375 1873 437.5 1821.5 c 128,-1,12
 500 1770 500 1770 549.5 1724.5 c 128,-1,13
 599 1679 599 1679 689 1595.5 c 128,-1,14
 779 1512 779 1512 813.5 1481 c 128,-1,15
 848 1450 848 1450 848 1424.5 c 0,0,1
EndSplineSet
EndChar

StartChar: a
Encoding: 97 97 68
Width: 1464
GlyphClass: 2
Flags: HW
LayerCount: 2
Fore
SplineSet
136 1013 m 0,0,1
 136 1327 136 1327 707.333333333 1327 c 0,2,3
 1229.58333333 1327 1229.58333333 1327 1335.5 1141 c 0,4,5
 1381 1061.09756098 1381 1061.09756098 1381 952 c 2,6,-1
 1381 257 l 1,7,8
 1382 129 1382 129 1410 1 c 1,9,-1
 890 1 l 1,10,-1
 834 139 l 1,11,12
 733.974358974 -27 733.974358974 -27 506.987179487 -27 c 128,-1,13
 280 -27 280 -27 176.5 75 c 128,-1,14
 73 177 73 177 73 395 c 0,15,16
 73 824 73 824 545 824 c 0,17,18
 686 824 686 824 811 783 c 1,19,-1
 811 1106 l 1,20,-1
 672 1106 l 1,21,-1
 672 915 l 1,22,-1
 147 895 l 1,23,24
 136 959 136 959 136 1013 c 0,0,1
645 653 m 1,25,-1
 645 200 l 1,26,-1
 811 200 l 1,27,-1
 811 653 l 1,28,-1
 645 653 l 1,25,-1
EndSplineSet
EndChar

StartChar: b
Encoding: 98 98 69
Width: 1481
GlyphClass: 2
Flags: HW
LayerCount: 2
Fore
SplineSet
997 -27 m 0,0,1
 758.136363636 -27 758.136363636 -27 662 114 c 1,2,-1
 625 0 l 1,3,-1
 105 0 l 1,4,-1
 105 1710 l 1,5,-1
 676 1710 l 1,6,-1
 676 1215 l 1,7,8
 773 1327 773 1327 1000 1327 c 0,9,10
 1414 1327 1414 1327 1414 940 c 2,11,-1
 1414 377 l 2,12,13
 1414 -27 1414 -27 997 -27 c 0,0,1
676 199 m 1,14,-1
 843 199 l 1,15,-1
 843 1105 l 1,16,-1
 676 1105 l 1,17,-1
 676 199 l 1,14,-1
EndSplineSet
EndChar

StartChar: c
Encoding: 99 99 70
Width: 1462
GlyphClass: 2
Flags: HW
LayerCount: 2
Fore
SplineSet
478.5 -13 m 0,0,1
 406 -4 406 -4 354 11.5 c 0,2,3
 86 91.3846153846 86 91.3846153846 86 355 c 2,4,-1
 86 955 l 2,5,6
 86 1125.77777778 86 1125.77777778 175.868534483 1195.67552682 c 128,-1,7
 265.737068966 1265.57327586 265.737068966 1265.57327586 333.868534483 1283.78663793 c 0,8,9
 495.518518519 1327 495.518518519 1327 659.759259259 1327 c 128,-1,10
 824 1327 824 1327 867 1326 c 128,-1,11
 910 1325 910 1325 987.5 1318.5 c 128,-1,12
 1065 1312 1065 1312 1112.5 1299.5 c 0,13,14
 1396 1224.89473684 1396 1224.89473684 1396 978 c 2,15,-1
 1396 787 l 1,16,-1
 825 787 l 1,17,-1
 825 1105 l 1,18,-1
 658 1105 l 1,19,-1
 658 199 l 1,20,-1
 825 199 l 1,21,-1
 825 539 l 1,22,-1
 1396 539 l 1,23,-1
 1397 352 l 2,24,25
 1397 178.342857143 1397 178.342857143 1311.32363829 107.353871723 c 128,-1,26
 1225.64727657 36.3648863035 1225.64727657 36.3648863035 1157.82363829 17.1824431518 c 0,27,28
 876.443341321 -62.3998630606 876.443341321 -62.3998630606 478.5 -13 c 0,0,1
EndSplineSet
EndChar

StartChar: d
Encoding: 100 100 71
Width: 1478
GlyphClass: 2
Flags: HW
LayerCount: 2
Fore
SplineSet
837 114 m 1,0,1
 738.727272727 -27 738.727272727 -27 502 -27 c 0,2,3
 85 -27 85 -27 85 377 c 2,4,-1
 85 940 l 2,5,6
 85 1327 85 1327 500 1327 c 0,7,8
 726 1327 726 1327 823 1215 c 1,9,-1
 823 1710 l 1,10,-1
 1394 1710 l 1,11,-1
 1394 0 l 1,12,-1
 874 0 l 1,13,-1
 837 114 l 1,0,1
822 1105 m 1,14,-1
 655 1105 l 1,15,-1
 655 199 l 1,16,-1
 822 199 l 1,17,-1
 822 1105 l 1,14,-1
EndSplineSet
EndChar

StartChar: e
Encoding: 101 101 72
Width: 1463
GlyphClass: 2
Flags: HW
LayerCount: 2
Fore
SplineSet
1404 380 m 0,0,1
 1404 157 1404 157 1245 65 c 128,-1,2
 1086 -27 1086 -27 779.666666667 -27 c 0,3,4
 283.556962025 -27 283.556962025 -27 162 118.5 c 0,5,6
 86 209.46969697 86 209.46969697 86 353 c 2,7,-1
 86 953 l 2,8,9
 86 1267.15972222 86 1267.15972222 457.276833414 1310.99101506 c 0,10,11
 592.882352941 1327 592.882352941 1327 695.441176471 1327 c 128,-1,12
 798 1327 798 1327 841 1326 c 128,-1,13
 884 1325 884 1325 941.5 1321 c 128,-1,14
 999 1317 999 1317 1041.5 1309.5 c 128,-1,15
 1084 1302 1084 1302 1134 1288.5 c 128,-1,16
 1184 1275 1184 1275 1220 1256 c 0,17,18
 1396 1163.11111111 1396 1163.11111111 1396 954 c 2,19,-1
 1396 604 l 1,20,-1
 658 604 l 1,21,-1
 658 199 l 1,22,-1
 825 199 l 1,23,-1
 825 483 l 1,24,-1
 1396 483 l 1,25,26
 1404 422 1404 422 1404 380 c 0,0,1
658 777 m 1,27,-1
 826 777 l 1,28,-1
 826 1105 l 1,29,-1
 658 1105 l 1,30,-1
 658 777 l 1,27,-1
EndSplineSet
EndChar

StartChar: f
Encoding: 102 102 73
Width: 1205
GlyphClass: 2
Flags: HW
LayerCount: 2
Fore
SplineSet
263 1300 m 1,0,1
 263 1538.87218045 263 1538.87218045 392.055555556 1634.93609023 c 0,2,3
 521.111111111 1731 521.111111111 1731 751.555555556 1731 c 128,-1,4
 982 1731 982 1731 1139 1683 c 1,5,-1
 1139 1477 l 1,6,-1
 834 1477 l 1,7,-1
 834 1300 l 1,8,-1
 1148 1300 l 1,9,-1
 1148 1098 l 1,10,-1
 834 1098 l 1,11,-1
 834 0 l 1,12,-1
 263 0 l 1,13,-1
 263 1098 l 1,14,-1
 56 1098 l 1,15,-1
 56 1300 l 1,16,-1
 263 1300 l 1,0,1
EndSplineSet
EndChar

StartChar: g
Encoding: 103 103 74
Width: 1470
GlyphClass: 2
Flags: HW
LayerCount: 2
Fore
SplineSet
505 91 m 0,0,1
 85 91 85 91 85 482 c 2,2,-1
 85 927 l 2,3,4
 85 1327 85 1327 508 1327 c 1,5,6
 744 1325 744 1325 847 1187 c 1,7,-1
 883 1299 l 1,8,-1
 1394 1299 l 1,9,-1
 1394 236 l 2,10,11
 1394 -78 1394 -78 1219.5 -225 c 128,-1,12
 1045 -372 1045 -372 732 -372 c 128,-1,13
 419 -372 419 -372 198 -311 c 1,14,-1
 255 -20 l 1,15,16
 396 -59 396 -59 585 -59 c 128,-1,17
 774 -59 774 -59 836 -22 c 1,18,-1
 836 205 l 1,19,20
 746 91 746 91 505 91 c 0,0,1
823 1104 m 1,21,-1
 656 1104 l 1,22,-1
 656 316 l 1,23,-1
 823 316 l 1,24,-1
 823 1104 l 1,21,-1
EndSplineSet
EndChar

StartChar: h
Encoding: 104 104 75
Width: 1486
GlyphClass: 2
Flags: HW
LayerCount: 2
Fore
SplineSet
676 1210 m 1,0,1
 761.660714286 1327 761.660714286 1327 997 1327 c 0,2,3
 1414 1327 1414 1327 1414 945 c 2,4,-1
 1414 0 l 1,5,-1
 843 0 l 1,6,-1
 843 1105 l 1,7,-1
 676 1105 l 1,8,-1
 676 0 l 1,9,-1
 105 0 l 1,10,-1
 105 1710 l 1,11,-1
 676 1710 l 1,12,-1
 676 1210 l 1,0,1
EndSplineSet
EndChar

StartChar: i
Encoding: 105 105 76
Width: 759
GlyphClass: 2
Flags: HW
LayerCount: 2
Fore
SplineSet
675 0 m 1,0,-1
 104 0 l 1,1,-1
 104 1300 l 1,2,-1
 675 1300 l 1,3,-1
 675 0 l 1,0,-1
675 1709 m 1,4,-1
 675 1425 l 1,5,-1
 104 1425 l 1,6,-1
 104 1709 l 1,7,-1
 675 1709 l 1,4,-1
EndSplineSet
EndChar

StartChar: j
Encoding: 106 106 77
Width: 868
GlyphClass: 2
Flags: HW
LayerCount: 2
Fore
SplineSet
784 94 m 2,0,1
 784 -326 784 -326 323 -326 c 0,2,3
 159 -326 159 -326 53 -305 c 1,4,-1
 23 -66 l 1,5,-1
 212 -66 l 1,6,-1
 212 1300 l 1,7,-1
 784 1300 l 1,8,-1
 784 94 l 2,0,1
784 1709 m 1,9,-1
 784 1425 l 1,10,-1
 212 1425 l 1,11,-1
 212 1709 l 1,12,-1
 784 1709 l 1,9,-1
EndSplineSet
EndChar

StartChar: k
Encoding: 107 107 78
Width: 1525
GlyphClass: 2
Flags: HW
LayerCount: 2
Fore
SplineSet
105 0 m 1,0,-1
 105 1710 l 1,1,-1
 676 1710 l 1,2,-1
 676 798 l 1,3,-1
 945 1300 l 1,4,-1
 1531 1300 l 1,5,-1
 1200 690 l 1,6,-1
 1538 0 l 1,7,-1
 958 0 l 1,8,-1
 719 575 l 1,9,-1
 676 478 l 1,10,-1
 676 0 l 1,11,-1
 105 0 l 1,0,-1
EndSplineSet
EndChar

StartChar: l
Encoding: 108 108 79
Width: 760
GlyphClass: 2
Flags: HW
LayerCount: 2
Fore
SplineSet
676 0 m 1,0,-1
 105 0 l 1,1,-1
 105 1710 l 1,2,-1
 676 1710 l 1,3,-1
 676 0 l 1,0,-1
EndSplineSet
EndChar

StartChar: m
Encoding: 109 109 80
Width: 2189
GlyphClass: 2
Flags: HW
LayerCount: 2
Fore
SplineSet
1693 1327 m 0,0,1
 2116 1327 2116 1327 2116 944 c 2,2,-1
 2116 0 l 1,3,-1
 1553 0 l 1,4,-1
 1553 1105 l 1,5,-1
 1380 1105 l 1,6,7
 1387 1067 1387 1067 1387 1001 c 2,8,-1
 1387 0 l 1,9,-1
 830 0 l 1,10,-1
 830 1105 l 1,11,-1
 663 1105 l 1,12,-1
 663 0 l 1,13,-1
 100 0 l 1,14,-1
 100 1300 l 1,15,-1
 612 1300 l 1,16,-1
 649 1188 l 1,17,18
 751.646153846 1327 751.646153846 1327 993.323076923 1327 c 128,-1,19
 1235 1327 1235 1327 1346 1191 c 1,20,21
 1439.37313433 1327 1439.37313433 1327 1693 1327 c 0,0,1
EndSplineSet
EndChar

StartChar: n
Encoding: 110 110 81
Width: 1482
GlyphClass: 2
Flags: HW
LayerCount: 2
Fore
SplineSet
646 1188 m 1,0,1
 745.285714286 1327 745.285714286 1327 968.642857143 1326.5 c 0,2,3
 1408 1325.51646946 1408 1325.51646946 1408 944 c 2,4,-1
 1408 0 l 1,5,-1
 837 0 l 1,6,-1
 837 1105 l 1,7,-1
 670 1105 l 1,8,-1
 670 0 l 1,9,-1
 99 0 l 1,10,-1
 99 1300 l 1,11,-1
 609 1300 l 1,12,-1
 646 1188 l 1,0,1
EndSplineSet
EndChar

StartChar: o
Encoding: 111 111 82
Width: 1465
GlyphClass: 2
Flags: HW
LayerCount: 2
Fore
SplineSet
658 233 m 1,0,-1
 824 233 l 1,1,-1
 824 1105 l 1,2,-1
 658 1105 l 1,3,-1
 658 233 l 1,0,-1
762 -27 m 128,-1,5
 683 -27 683 -27 638 -26 c 128,-1,6
 593 -25 593 -25 534.5 -20.5 c 128,-1,7
 476 -16 476 -16 433 -8.5 c 128,-1,8
 390 -1 390 -1 340.5 13 c 128,-1,9
 291 27 291 27 256 46.5 c 0,10,11
 87 140.657142857 87 140.657142857 87 353 c 2,12,-1
 87 953 l 2,13,14
 87 1280.12598425 87 1280.12598425 500.050175029 1315.90198366 c 0,15,16
 628.181818182 1327 628.181818182 1327 726.090909091 1327 c 128,-1,17
 824 1327 824 1327 883.5 1324.5 c 128,-1,18
 943 1322 943 1322 1014 1313 c 128,-1,19
 1085 1304 1085 1304 1136.5 1288 c 0,20,21
 1396 1207.37864078 1396 1207.37864078 1396 952 c 2,22,-1
 1396 352 l 2,23,24
 1396 166.735849057 1396 166.735849057 1318 107.867924528 c 128,-1,25
 1240 49 1240 49 1187 24 c 128,-1,26
 1134 -1 1134 -1 1047.5 -11 c 128,-1,27
 961 -21 961 -21 901 -24 c 128,-1,4
 841 -27 841 -27 762 -27 c 128,-1,5
EndSplineSet
EndChar

StartChar: p
Encoding: 112 112 83
Width: 1476
GlyphClass: 2
Flags: HW
LayerCount: 2
Fore
SplineSet
626 1188 m 1,0,1
 729.196969697 1327 729.196969697 1327 986 1327 c 0,2,3
 1409 1327 1409 1327 1409 926 c 2,4,-1
 1409 365 l 2,5,6
 1409 -27 1409 -27 989 -27 c 0,7,8
 758 -27 758 -27 670 87 c 1,9,-1
 670 -408 l 1,10,-1
 99 -408 l 1,11,-1
 99 1300 l 1,12,-1
 589 1300 l 1,13,-1
 626 1188 l 1,0,1
670 199 m 1,14,-1
 837 199 l 1,15,-1
 837 1105 l 1,16,-1
 670 1105 l 1,17,-1
 670 199 l 1,14,-1
EndSplineSet
EndChar

StartChar: q
Encoding: 113 113 84
Width: 1459
GlyphClass: 2
Flags: HW
LayerCount: 2
Fore
SplineSet
502 1327 m 0,0,1
 732.882352941 1327 732.882352941 1327 831 1188 c 1,2,-1
 869 1300 l 1,3,-1
 1381 1300 l 1,4,-1
 1381 -408 l 1,5,-1
 832 -408 l 1,6,-1
 832 87 l 1,7,8
 733 -27 733 -27 501 -27 c 0,9,10
 86 -27 86 -27 86 365 c 2,11,-1
 86 926 l 1,12,-1
 85 926 l 1,13,14
 85 1327 85 1327 502 1327 c 0,0,1
817 1105 m 1,15,-1
 652 1105 l 1,16,-1
 652 199 l 1,17,-1
 817 199 l 1,18,-1
 817 1105 l 1,15,-1
EndSplineSet
EndChar

StartChar: r
Encoding: 114 114 85
Width: 981
GlyphClass: 2
Flags: HW
LayerCount: 2
Fore
SplineSet
671 0 m 1,0,-1
 100 0 l 1,1,-1
 101 1300 l 1,2,-1
 587 1300 l 1,3,-1
 628 1153 l 1,4,5
 697.932234631 1320.41353139 697.932234631 1320.41353139 957 1327 c 1,6,-1
 957 949 l 1,7,-1
 671 893 l 1,8,-1
 671 0 l 1,0,-1
EndSplineSet
EndChar

StartChar: s
Encoding: 115 115 86
Width: 1434
GlyphClass: 2
Flags: HW
LayerCount: 2
Fore
SplineSet
807 446 m 1,0,-1
 808 446 l 1,1,2
 798.945981555 456.185770751 798.945981555 456.185770751 724.472990777 465.592885375 c 0,3,4
 407.245030251 505.663785653 407.245030251 505.663785653 317.122515125 553.331892826 c 128,-1,5
 227 601 227 601 148.5 672.504950495 c 128,-1,6
 70 744.00990099 70 744.00990099 70 933.669898949 c 128,-1,7
 70 1123.32989691 70 1123.32989691 189.199217618 1203.20566129 c 128,-1,8
 308.398435236 1283.08142567 308.398435236 1283.08142567 438.324217618 1305.04071284 c 128,-1,9
 568.25 1327 568.25 1327 688.625 1327 c 128,-1,10
 809 1327 809 1327 859.5 1325 c 128,-1,11
 910 1323 910 1323 978 1315 c 128,-1,12
 1046 1307 1046 1307 1094 1292.5 c 0,13,14
 1347 1216.07291667 1347 1216.07291667 1347 956 c 0,15,16
 1347 887 1347 887 1346 872 c 1,17,-1
 807 902 l 1,18,-1
 807 1063 l 1,19,-1
 640 1063 l 1,20,-1
 640 861 l 1,21,22
 649.97037037 851.02962963 649.97037037 851.02962963 799.769357847 829.223447908 c 128,-1,23
 949.568345324 807.417266187 949.568345324 807.417266187 1024.28417266 786.708633094 c 0,24,25
 1378 688.670887295 1378 688.670887295 1378 429.835443647 c 128,-1,26
 1378 171 1378 171 1220.5 70.5 c 0,27,28
 1067.70149254 -27 1067.70149254 -27 856.350746269 -27 c 128,-1,29
 645 -27 645 -27 596 -25.5 c 128,-1,30
 547 -24 547 -24 491.5 -18.5 c 128,-1,31
 436 -13 436 -13 395 -3.5 c 128,-1,32
 354 6 354 6 311 22 c 128,-1,33
 268 38 268 38 238 60 c 0,34,35
 100 161.2 100 161.2 100 397 c 0,36,37
 100 420 100 420 101 432 c 1,38,-1
 640 400 l 1,39,-1
 640 233 l 1,40,-1
 807 233 l 1,41,-1
 807 446 l 1,0,-1
EndSplineSet
EndChar

StartChar: t
Encoding: 116 116 87
Width: 968
GlyphClass: 2
Flags: HW
LayerCount: 2
Fore
SplineSet
764 0 m 1,0,-1
 193 0 l 1,1,-1
 193 1100 l 1,2,-1
 56 1100 l 1,3,-1
 56 1300 l 1,4,-1
 193 1300 l 1,5,-1
 193 1595 l 1,6,-1
 764 1595 l 1,7,-1
 764 1300 l 1,8,-1
 923 1300 l 1,9,-1
 923 1100 l 1,10,-1
 764 1100 l 1,11,-1
 764 0 l 1,0,-1
EndSplineSet
EndChar

StartChar: u
Encoding: 117 117 88
Width: 1478
GlyphClass: 2
Flags: HW
LayerCount: 2
Fore
SplineSet
847 112 m 1,0,1
 762.296875 -27 762.296875 -27 515 -27 c 0,2,3
 91 -27 91 -27 91 360 c 2,4,-1
 91 1300 l 1,5,-1
 663 1300 l 1,6,-1
 663 233 l 1,7,-1
 829 233 l 1,8,-1
 829 1300 l 1,9,-1
 1401 1300 l 1,10,-1
 1401 0 l 1,11,-1
 884 0 l 1,12,-1
 847 112 l 1,0,1
EndSplineSet
EndChar

StartChar: v
Encoding: 118 118 89
Width: 1348
GlyphClass: 2
Flags: HW
LayerCount: 2
Fore
SplineSet
635 686 m 1,0,-1
 652 340 l 1,1,-1
 701 340 l 1,2,-1
 718 686 l 1,3,-1
 786 1300 l 1,4,-1
 1347 1300 l 1,5,-1
 1073 0 l 1,6,-1
 279 0 l 1,7,-1
 4 1300 l 1,8,-1
 565 1300 l 1,9,-1
 635 686 l 1,0,-1
EndSplineSet
EndChar

StartChar: w
Encoding: 119 119 90
Width: 2066
GlyphClass: 2
Flags: HW
LayerCount: 2
Fore
SplineSet
992 435 m 1,0,-1
 940 0 l 1,1,-1
 250 0 l 1,2,-1
 32 1300 l 1,3,-1
 562 1300 l 1,4,-1
 617 761 l 1,5,-1
 637 385 l 1,6,-1
 681 385 l 1,7,-1
 711 761 l 1,8,-1
 763 1300 l 1,9,-1
 1308 1300 l 1,10,-1
 1359 761 l 1,11,-1
 1385 385 l 1,12,-1
 1429 385 l 1,13,-1
 1449 761 l 1,14,-1
 1502 1300 l 1,15,-1
 2031 1300 l 1,16,-1
 1813 0 l 1,17,-1
 1119 0 l 1,18,-1
 1065 435 l 1,19,-1
 1043 801 l 1,20,-1
 1013 801 l 1,21,-1
 992 435 l 1,0,-1
EndSplineSet
EndChar

StartChar: x
Encoding: 120 120 91
Width: 1395
GlyphClass: 2
Flags: HW
LayerCount: 2
Fore
SplineSet
45 0 m 1,0,-1
 418 652 l 1,1,-1
 45 1300 l 1,2,-1
 617 1300 l 1,3,-1
 703 1049 l 1,4,-1
 790 1300 l 1,5,-1
 1361 1300 l 1,6,-1
 988 652 l 1,7,-1
 1361 0 l 1,8,-1
 794 0 l 1,9,-1
 703 258 l 1,10,-1
 612 0 l 1,11,-1
 45 0 l 1,0,-1
EndSplineSet
EndChar

StartChar: y
Encoding: 121 121 92
Width: 1342
GlyphClass: 2
Flags: HW
LayerCount: 2
Fore
SplineSet
565 -371 m 0,0,1
 461 -371 461 -371 192 -318 c 1,2,-1
 235 -13 l 1,3,4
 395 -53 395 -53 512 -53 c 128,-1,5
 629 -53 629 -53 705 -24 c 1,6,-1
 705 135 l 1,7,8
 580 89 580 89 418 89 c 128,-1,9
 256 89 256 89 211 277 c 1,10,-1
 20 1300 l 1,11,-1
 553 1300 l 1,12,-1
 628 693 l 1,13,-1
 639 417 l 1,14,-1
 709 417 l 1,15,-1
 721 693 l 1,16,-1
 781 1300 l 1,17,-1
 1333 1300 l 1,18,-1
 1113 14 l 1,19,20
 1049.53846154 -371 1049.53846154 -371 565 -371 c 0,0,1
EndSplineSet
EndChar

StartChar: z
Encoding: 122 122 93
Width: 1118
GlyphClass: 2
Flags: HW
LayerCount: 2
Fore
SplineSet
100 1300 m 1,0,-1
 1052 1300 l 1,1,-1
 1052 1079 l 1,2,-1
 696 246 l 1,3,-1
 1059 246 l 1,4,-1
 1059 0 l 1,5,-1
 76 0 l 1,6,-1
 76 233 l 1,7,-1
 436 1051 l 1,8,-1
 100 1051 l 1,9,-1
 100 1300 l 1,0,-1
EndSplineSet
EndChar

StartChar: braceleft
Encoding: 123 123 94
Width: 1132
GlyphClass: 2
Flags: HW
LayerCount: 2
Fore
SplineSet
1100 1925 m 1,0,-1
 1100 1646 l 1,1,2
 792.619834711 1646 792.619834711 1646 755 1361.5 c 0,3,4
 747 1301 747 1301 744 1238 c 0,5,6
 736.120689655 1072.53448276 736.120689655 1072.53448276 715.678293546 966.605702918 c 128,-1,7
 695.235897436 860.676923077 695.235897436 860.676923077 609 796 c 1,8,9
 695.300518135 739.120113048 695.300518135 739.120113048 715.151746425 638.961643038 c 128,-1,10
 735.002974715 538.803173029 735.002974715 538.803173029 741.501487357 420.901586515 c 128,-1,11
 748 303 748 303 755.5 241.5 c 0,12,13
 791.170731707 -51 791.170731707 -51 1101 -51 c 1,14,-1
 1101 -330 l 1,15,16
 487.28358209 -330 487.28358209 -330 341 33 c 0,17,18
 287 167 287 167 279 275.5 c 128,-1,19
 271 384 271 384 268 415 c 128,-1,20
 265 446 265 446 263 466.5 c 128,-1,21
 261 487 261 487 256 514.5 c 128,-1,22
 251 542 251 542 244 560.5 c 0,23,24
 207.108108108 658 207.108108108 658 85 658 c 1,25,-1
 85 937 l 1,26,27
 244.3 937 244.3 937 261.1 1105 c 0,28,29
 265 1144 265 1144 268.5 1176.5 c 128,-1,30
 272 1209 272 1209 290.5 1351 c 128,-1,31
 309 1493 309 1493 401.5 1643.5 c 0,32,33
 574.514950166 1925 574.514950166 1925 1100 1925 c 1,0,-1
EndSplineSet
EndChar

StartChar: bar
Encoding: 124 124 95
Width: 831
GlyphClass: 2
Flags: HW
LayerCount: 2
Fore
SplineSet
700 1795 m 1,0,-1
 700 -100 l 1,1,-1
 129 -100 l 1,2,-1
 129 1795 l 1,3,-1
 700 1795 l 1,0,-1
EndSplineSet
EndChar

StartChar: braceright
Encoding: 125 125 96
Width: 1131
GlyphClass: 2
Flags: HW
LayerCount: 2
Fore
SplineSet
59 1646 m 1,0,-1
 59 1925 l 1,1,2
 584.485049834 1925 584.485049834 1925 757.5 1643.5 c 0,3,4
 857.778281912 1480.34452511 857.778281912 1480.34452511 875.889140956 1312.17226255 c 128,-1,5
 894 1144 894 1144 896 1124 c 128,-1,6
 898 1104 898 1104 903.5 1076 c 128,-1,7
 909 1048 909 1048 916 1030.5 c 0,8,9
 953.4 937 953.4 937 1074 937 c 1,10,-1
 1074 658 l 1,11,12
 914.516129032 658 914.516129032 658 894.835913313 454.637770898 c 0,13,14
 888 384 888 384 880 275.5 c 128,-1,15
 872 167 872 167 818 33 c 128,-1,16
 764 -101 764 -101 659.5 -181.5 c 0,17,18
 466.726708075 -330 466.726708075 -330 58 -330 c 1,19,-1
 58 -51 l 1,20,21
 367.829268293 -51 367.829268293 -51 403.5 241.5 c 0,22,23
 411 303 411 303 414.5 366.5 c 0,24,25
 423.997025285 538.803173029 423.997025285 538.803173029 443.848253575 638.961643038 c 128,-1,26
 463.699481865 739.120113048 463.699481865 739.120113048 550 796 c 1,27,28
 463.764102564 860.676923077 463.764102564 860.676923077 443.321706454 966.605702918 c 128,-1,29
 422.879310345 1072.53448276 422.879310345 1072.53448276 417.439655172 1186.76724138 c 128,-1,30
 412 1301 412 1301 404 1361.5 c 0,31,32
 366.380165289 1646 366.380165289 1646 59 1646 c 1,0,-1
EndSplineSet
EndChar

StartChar: asciitilde
Encoding: 126 126 97
Width: 1424
GlyphClass: 2
Flags: HW
LayerCount: 2
Fore
SplineSet
1057 642 m 1,0,1
 1057 806 1057 806 955 806 c 0,2,3
 869.928571429 806 869.928571429 806 805.464285714 758.5 c 128,-1,4
 741 711 741 711 671.446428571 663.5 c 128,-1,5
 601.892857143 616 601.892857143 616 498.946428571 616 c 128,-1,6
 396 616 396 616 330.5 636.5 c 128,-1,7
 265 657 265 657 221 697 c 0,8,9
 73 831.545454545 73 831.545454545 73 1176 c 1,10,-1
 369 1176 l 1,11,12
 369 1008 369 1008 481 1008 c 0,13,14
 570.857142857 1008 570.857142857 1008 645.428571429 1056 c 128,-1,15
 720 1104 720 1104 798.280701754 1152.5 c 128,-1,16
 876.561403509 1201 876.561403509 1201 1017.86641604 1201 c 0,17,18
 1282.02222222 1201 1282.02222222 1201 1332 941.5 c 0,19,20
 1354 827.269230769 1354 827.269230769 1354 642 c 1,21,-1
 1057 642 l 1,0,1
EndSplineSet
EndChar

StartChar: exclamdown
Encoding: 161 161 98
Width: 719
GlyphClass: 2
Flags: HW
LayerCount: 2
Fore
SplineSet
310 989 m 1,0,1
 326.484848485 1057 326.484848485 1057 358.742424242 1057 c 128,-1,2
 391 1057 391 1057 407.5 1039.5 c 128,-1,3
 424 1022 424 1022 438.5 959 c 128,-1,4
 453 896 453 896 541 597.28440367 c 128,-1,5
 629 298.568807339 629 298.568807339 629 190.28440367 c 128,-1,6
 629 82 629 82 551.5 23.5 c 128,-1,7
 474 -35 474 -35 370 -35 c 128,-1,8
 266 -35 266 -35 192 22 c 128,-1,9
 118 79 118 79 118 183.4 c 128,-1,10
 118 287.8 118 287.8 203.5 589.9 c 128,-1,11
 289 892 289 892 311 989 c 1,12,-1
 310 989 l 1,0,1
353.5 1627 m 128,-1,14
 436 1627 436 1627 498.5 1565.5 c 128,-1,15
 561 1504 561 1504 561 1401 c 128,-1,16
 561 1298 561 1298 500 1242.5 c 128,-1,17
 439 1187 439 1187 355.5 1187 c 128,-1,18
 272 1187 272 1187 211.5 1241.5 c 128,-1,19
 151 1296 151 1296 151 1392 c 1,20,-1
 152 1391 l 1,21,22
 152 1504 152 1504 211.5 1565.5 c 128,-1,13
 271 1627 271 1627 353.5 1627 c 128,-1,14
EndSplineSet
EndChar

StartChar: cent
Encoding: 162 162 99
Width: 1462
GlyphClass: 2
Flags: HW
LayerCount: 2
Fore
SplineSet
785 1343 m 1,0,1
 1396 1332.81666667 1396 1332.81666667 1396 992 c 2,2,-1
 1396 881 l 1,3,-1
 885 881 l 1,4,-1
 885 1119 l 1,5,-1
 785 1119 l 1,6,-1
 785 373 l 1,7,-1
 885 373 l 1,8,-1
 885 633 l 1,9,-1
 1396 633 l 1,10,-1
 1396 523 l 2,11,12
 1396 268.561797753 1396 268.561797753 1159.5 191.5 c 0,13,14
 1022.93103448 147 1022.93103448 147 785 147 c 1,15,-1
 785 -74 l 1,16,-1
 706 -74 l 1,17,-1
 706 147 l 1,18,19
 280.794871795 147 280.794871795 147 156 304 c 0,20,21
 86 392.064516129 86 392.064516129 86 529 c 2,22,-1
 86 969 l 2,23,24
 86 1274.32835821 86 1274.32835821 461 1327.5 c 0,25,26
 570.315789474 1343 570.315789474 1343 706 1343 c 1,27,-1
 706 1578 l 1,28,-1
 785 1578 l 1,29,-1
 785 1343 l 1,0,1
598 1119 m 1,30,-1
 598 373 l 1,31,-1
 706 373 l 1,32,-1
 706 1119 l 1,33,-1
 598 1119 l 1,30,-1
EndSplineSet
EndChar

StartChar: sterling
Encoding: 163 163 100
Width: 1598
GlyphClass: 2
Flags: HW
LayerCount: 2
Fore
SplineSet
234 376 m 2,0,-1
 234 719 l 1,1,-1
 76 719 l 1,2,-1
 76 941 l 1,3,-1
 234 941 l 1,4,-1
 234 1065 l 2,5,6
 234 1404.12413793 234 1404.12413793 328.5 1494.06206897 c 128,-1,7
 423 1584 423 1584 556 1608 c 128,-1,8
 689 1632 689 1632 1004.82300885 1632 c 128,-1,9
 1320.6460177 1632 1320.6460177 1632 1450 1476.5 c 0,10,11
 1507 1407.9787234 1507 1407.9787234 1507 1247 c 2,12,-1
 1507 1070 l 1,13,-1
 926 1070 l 1,14,-1
 926 1364 l 1,15,-1
 819 1364 l 1,16,-1
 819 940 l 1,17,-1
 1246 940 l 1,18,-1
 1246 718 l 1,19,-1
 819 718 l 1,20,-1
 819 268 l 1,21,-1
 947 268 l 1,22,-1
 947 562 l 1,23,-1
 1528 562 l 1,24,-1
 1528 385 l 2,25,26
 1528 262 1528 262 1499.5 185.5 c 0,27,28
 1430.39215686 2.70006239589e-13 1430.39215686 2.70006239589e-13 1097 0 c 0,29,30
 904 0 904 0 819 91 c 0,31,32
 805 106 805 106 781 130 c 1,33,34
 690.317468027 35.4586368787 690.317468027 35.4586368787 593.158734013 18.7293184394 c 128,-1,35
 496 2 496 2 301 0 c 1,36,-1
 74 0 l 1,37,-1
 74 265 l 1,38,-1
 76 266 l 1,39,40
 234 286 234 286 234 376 c 2,0,-1
EndSplineSet
EndChar

StartChar: currency
Encoding: 164 164 101
Width: 1390
GlyphClass: 2
Flags: HW
LayerCount: 2
Fore
SplineSet
244 401 m 1,0,1
 68 515.212765957 68 515.212765957 68 817.035794743 c 128,-1,2
 68 1118.85882353 68 1118.85882353 219 1229 c 1,3,-1
 127 1330 l 1,4,-1
 207 1414 l 1,5,-1
 325 1286 l 1,6,7
 470 1343 470 1343 694.5 1343 c 128,-1,8
 919 1343 919 1343 1065 1287 c 1,9,-1
 1181 1414 l 1,10,-1
 1262 1330 l 1,11,-1
 1171 1231 l 1,12,13
 1325 1120.75 1325 1120.75 1325 816.821808511 c 128,-1,14
 1325 512.893617021 1325 512.893617021 1145 398 c 1,15,-1
 1263 272 l 1,16,-1
 1182 188 l 1,17,-1
 1036 346 l 1,18,19
 894 299 894 299 691.5 300 c 128,-1,20
 489 301 489 301 354 349 c 1,21,-1
 206 189 l 1,22,-1
 126 273 l 1,23,-1
 244 401 l 1,0,1
637 570 m 1,24,-1
 749 570 l 1,25,-1
 749 1070 l 1,26,-1
 637 1070 l 1,27,-1
 637 570 l 1,24,-1
EndSplineSet
EndChar

StartChar: yen
Encoding: 165 165 102
Width: 1571
GlyphClass: 2
Flags: HW
LayerCount: 2
Fore
SplineSet
1425 728 m 1,0,-1
 1425 585 l 1,1,-1
 127 585 l 1,2,-1
 127 728 l 1,3,-1
 1425 728 l 1,0,-1
1425 442 m 1,4,-1
 1425 299 l 1,5,-1
 127 299 l 1,6,-1
 127 442 l 1,7,-1
 1425 442 l 1,4,-1
1082 0 m 1,8,-1
 477 0 l 1,9,-1
 477 459 l 1,10,-1
 32 1595 l 1,11,-1
 592 1595 l 1,12,-1
 746 1021 l 1,13,-1
 763 815 l 1,14,-1
 792 815 l 1,15,-1
 809 1021 l 1,16,-1
 968 1595 l 1,17,-1
 1524 1595 l 1,18,-1
 1082 449 l 1,19,-1
 1082 0 l 1,8,-1
EndSplineSet
EndChar

StartChar: brokenbar
Encoding: 166 166 103
Width: 831
GlyphClass: 2
Flags: HW
LayerCount: 2
Fore
SplineSet
702 656 m 1,0,-1
 702 -255 l 1,1,-1
 131 -255 l 1,2,-1
 131 656 l 1,3,-1
 702 656 l 1,0,-1
702 1708 m 1,4,-1
 702 797 l 1,5,-1
 131 797 l 1,6,-1
 131 1708 l 1,7,-1
 702 1708 l 1,4,-1
EndSplineSet
EndChar

StartChar: section
Encoding: 167 167 104
Width: 1362
GlyphClass: 2
Flags: HW
LayerCount: 2
Fore
SplineSet
73 783 m 0,0,1
 73 966.941176471 73 966.941176471 265 1046 c 1,2,3
 88 1129 88 1129 88 1349.72826087 c 128,-1,4
 88 1570.45652174 88 1570.45652174 198.712395743 1651.08402733 c 128,-1,5
 309.424791487 1731.71153293 309.424791487 1731.71153293 426.030577562 1750.85576647 c 128,-1,6
 542.636363636 1770 542.636363636 1770 655.318181818 1770 c 128,-1,7
 768 1770 768 1770 817.5 1768 c 128,-1,8
 867 1766 867 1766 931 1758 c 128,-1,9
 995 1750 995 1750 1041.5 1735.5 c 0,10,11
 1283 1660.19354839 1283 1660.19354839 1283 1411 c 1,12,-1
 1282 1306 l 1,13,-1
 730 1306 l 1,14,-1
 730 1497 l 1,15,-1
 657 1497 l 1,16,-1
 657 1248 l 1,17,18
 674 1231 674 1231 825 1227 c 0,19,20
 1294 1214.57615894 1294 1214.57615894 1294 955.5 c 0,21,22
 1294 776 1294 776 1142 705 c 0,23,24
 1100 685 1100 685 1083 685 c 1,25,26
 1087 683 1087 683 1106.5 675 c 0,27,28
 1278 604.641025641 1278 604.641025641 1278 382.092251951 c 128,-1,29
 1278 159.543478261 1278 159.543478261 1167.28760426 78.9159726651 c 0,30,31
 982.659048707 -55.5417797458 982.659048707 -55.5417797458 548.5 -38 c 0,32,33
 256.124470787 -26.1868473045 256.124470787 -26.1868473045 170.562235394 79.3399096811 c 128,-1,34
 85 184.866666667 85 184.866666667 85 321 c 1,35,-1
 86 426 l 1,36,-1
 637 426 l 1,37,-1
 637 235 l 1,38,-1
 710 235 l 1,39,-1
 710 487 l 1,40,-1
 455 487 l 2,41,42
 73 487 73 487 73 783 c 0,0,1
717 748 m 1,43,-1
 717 971 l 1,44,-1
 648 971 l 1,45,-1
 648 748 l 1,46,-1
 717 748 l 1,43,-1
EndSplineSet
EndChar

StartChar: dieresis
Encoding: 168 168 105
Width: 1296
GlyphClass: 2
Flags: HW
LayerCount: 2
Fore
SplineSet
533 418 m 1,0,-1
 533 82 l 1,1,-1
 83 82 l 1,2,-1
 83 418 l 1,3,-1
 533 418 l 1,0,-1
1217 418 m 1,4,-1
 1217 82 l 1,5,-1
 766 82 l 1,6,-1
 766 418 l 1,7,-1
 1217 418 l 1,4,-1
EndSplineSet
EndChar

StartChar: copyright
Encoding: 169 169 106
Width: 1861
GlyphClass: 2
Flags: HW
LayerCount: 2
Fore
SplineSet
923.5 -101 m 128,-1,1
 772 -101 772 -101 646.5 -82.5 c 0,2,3
 84 0.418326693227 84 0.418326693227 84 539 c 2,4,-1
 84 1116 l 2,5,6
 84 1684.14450867 84 1684.14450867 745.5 1741.5 c 0,7,8
 832 1749 832 1749 961.5 1749 c 128,-1,9
 1091 1749 1091 1749 1216.5 1731 c 0,10,11
 1780 1650.17928287 1780 1650.17928287 1780 1116 c 2,12,-1
 1780 539 l 2,13,14
 1780 -7.60256410256 1780 -7.60256410256 1192 -85.5 c 0,15,0
 1075 -101 1075 -101 923.5 -101 c 128,-1,1
1541 1165 m 2,16,17
 1541 1573 1541 1573 963.909090909 1573 c 0,18,19
 616.295238095 1573 616.295238095 1573 469.647619048 1474.92356688 c 128,-1,20
 323 1376.84713376 323 1376.84713376 323 1114 c 2,21,-1
 323 535 l 2,22,23
 323 156.564220183 323 156.564220183 663 89.5 c 0,24,25
 772 68 772 68 909.5 68 c 128,-1,26
 1047 68 1047 68 1137 79.5 c 0,27,28
 1541 131.122222222 1541 131.122222222 1541 482 c 2,29,-1
 1541 1165 l 2,16,17
835 432 m 1,30,-1
 1034 432 l 1,31,-1
 1034 749 l 1,32,-1
 1311 749 l 1,33,-1
 1311 542 l 2,34,35
 1311 350.365384615 1311 350.365384615 1160 301 c 0,36,37
 1071.29411765 272 1071.29411765 272 949.647058824 272 c 0,38,39
 743.931034483 272 743.931034483 272 649.465517241 325.715686275 c 128,-1,40
 555 379.431372549 555 379.431372549 555 547 c 2,41,-1
 555 1107 l 2,42,43
 555 1272.58585859 555 1272.58585859 645.957627119 1326.79292929 c 128,-1,44
 736.915254237 1381 736.915254237 1381 909.662172573 1381 c 128,-1,45
 1082.40909091 1381 1082.40909091 1381 1133.70454545 1362.5 c 0,46,47
 1311 1298.55737705 1311 1298.55737705 1311 1111 c 2,48,-1
 1311 913 l 1,49,-1
 1034 913 l 1,50,-1
 1034 1222 l 1,51,-1
 835 1222 l 1,52,-1
 835 432 l 1,30,-1
EndSplineSet
EndChar

StartChar: ordfeminine
Encoding: 170 170 107
Width: 1471
GlyphClass: 2
Flags: HW
LayerCount: 2
Fore
SplineSet
135 1303 m 0,0,1
 135 1616 135 1616 740.5 1616 c 0,2,3
 1352.88050314 1616 1352.88050314 1616 1377 1321 c 0,4,5
 1380 1279 1380 1279 1380 1241 c 2,6,-1
 1380 546 l 1,7,-1
 1381 547 l 1,8,9
 1381 420 1381 420 1409 290 c 1,10,-1
 889 290 l 1,11,-1
 833 428 l 1,12,13
 733.576923077 263 733.576923077 263 506.288461538 263 c 128,-1,14
 279 263 279 263 175.5 364.5 c 128,-1,15
 72 466 72 466 72 684 c 0,16,17
 72 1113 72 1113 544 1113 c 0,18,19
 685 1113 685 1113 810 1072 c 1,20,-1
 810 1395 l 1,21,-1
 671 1395 l 1,22,-1
 671 1204 l 1,23,-1
 146 1184 l 1,24,25
 135 1248 135 1248 135 1303 c 0,0,1
644 942 m 1,26,-1
 644 489 l 1,27,-1
 810 489 l 1,28,-1
 810 942 l 1,29,-1
 644 942 l 1,26,-1
EndSplineSet
EndChar

StartChar: guillemotleft
Encoding: 171 171 108
Width: 1806
GlyphClass: 2
Flags: HW
LayerCount: 2
Fore
SplineSet
855 278 m 0,0,1
 855 190 855 190 774.5 190 c 0,2,3
 741 190 741 190 711 213 c 1,4,-1
 184 593 l 1,5,6
 94 656.409090909 94 656.409090909 95.1017990347 776.303492361 c 128,-1,7
 96.2035980693 896.197893813 96.2035980693 896.197893813 184 961 c 1,8,-1
 711 1341 l 2,9,10
 743 1364 743 1364 776.5 1364 c 0,11,12
 857 1364 857 1364 857 1278 c 0,13,14
 857 1242 857 1242 832 1209 c 2,15,-1
 498 777 l 1,16,-1
 832 345 l 2,17,18
 855 315 855 315 855 278 c 0,0,1
1590 279 m 0,19,20
 1590 190 1590 190 1510.5 190 c 0,21,22
 1477 190 1477 190 1446 213 c 2,23,-1
 920 593 l 1,24,25
 830 656.409090909 830 656.409090909 831.101799035 776.303492361 c 128,-1,26
 832.203598069 896.197893813 832.203598069 896.197893813 920 961 c 1,27,-1
 1446 1341 l 2,28,29
 1478 1364 1478 1364 1512 1364 c 0,30,31
 1592 1364 1592 1364 1592 1277.5 c 0,32,33
 1592 1241 1592 1241 1568 1209 c 2,34,-1
 1234 777 l 1,35,-1
 1568 345 l 2,36,37
 1590 317 1590 317 1590 279 c 0,19,20
EndSplineSet
EndChar

StartChar: logicalnot
Encoding: 172 172 109
Width: 1269
GlyphClass: 2
Flags: HW
LayerCount: 2
Fore
SplineSet
1179 300 m 1,0,-1
 950 300 l 1,1,-1
 950 791 l 1,2,-1
 83 791 l 1,3,-1
 83 1105 l 1,4,-1
 1179 1105 l 1,5,-1
 1179 300 l 1,0,-1
EndSplineSet
EndChar

StartChar: uni00AD
Encoding: 173 173 110
Width: 1005
GlyphClass: 2
Flags: HW
LayerCount: 2
Fore
SplineSet
920 897 m 1,0,-1
 920 561 l 1,1,-1
 87 561 l 1,2,-1
 87 897 l 1,3,-1
 920 897 l 1,0,-1
EndSplineSet
EndChar

StartChar: registered
Encoding: 174 174 111
Width: 1861
GlyphClass: 2
Flags: HW
LayerCount: 2
Fore
SplineSet
923.5 -101 m 128,-1,1
 772 -101 772 -101 646.5 -82.5 c 0,2,3
 84 0.418326693227 84 0.418326693227 84 539 c 2,4,-1
 84 1116 l 2,5,6
 84 1684.14450867 84 1684.14450867 745.5 1741.5 c 0,7,8
 832 1749 832 1749 961.5 1749 c 128,-1,9
 1091 1749 1091 1749 1216.5 1731 c 0,10,11
 1780 1650.17928287 1780 1650.17928287 1780 1116 c 2,12,-1
 1780 539 l 2,13,14
 1780 -7.60256410256 1780 -7.60256410256 1192 -85.5 c 0,15,0
 1075 -101 1075 -101 923.5 -101 c 128,-1,1
1541 1165 m 2,16,17
 1541 1573 1541 1573 963.909090909 1573 c 0,18,19
 616.295238095 1573 616.295238095 1573 469.647619048 1474.92356688 c 128,-1,20
 323 1376.84713376 323 1376.84713376 323 1114 c 2,21,-1
 323 535 l 2,22,23
 323 156.564220183 323 156.564220183 663 89.5 c 0,24,25
 772 68 772 68 909.5 68 c 128,-1,26
 1047 68 1047 68 1137 79.5 c 0,27,28
 1541 131.122222222 1541 131.122222222 1541 482 c 2,29,-1
 1541 1165 l 2,16,17
1357 643 m 2,30,-1
 1357 279 l 1,31,-1
 978 279 l 1,32,-1
 978 756 l 1,33,-1
 895 756 l 1,34,-1
 895 279 l 1,35,-1
 506 279 l 1,36,-1
 506 1434 l 1,37,-1
 1016 1434 l 2,38,39
 1256.125 1434 1256.125 1434 1308.5625 1350.1 c 128,-1,40
 1361 1266.2 1361 1266.2 1361 1164 c 2,41,-1
 1361 1071 l 2,42,43
 1361 874.887096774 1361 874.887096774 1226 864 c 1,44,-1
 1116 854 l 1,45,-1
 1116 835 l 1,46,-1
 1227 828 l 2,47,48
 1357 819.612903226 1357 819.612903226 1357 643 c 2,30,-1
895 915 m 1,49,-1
 978 915 l 1,50,-1
 978 1274 l 1,51,-1
 895 1274 l 1,52,-1
 895 915 l 1,49,-1
EndSplineSet
EndChar

StartChar: macron
Encoding: 175 175 112
Width: 999
GlyphClass: 2
Flags: HW
LayerCount: 2
Fore
SplineSet
920 897 m 1,0,-1
 920 666 l 1,1,-1
 87 666 l 1,2,-1
 87 897 l 1,3,-1
 920 897 l 1,0,-1
EndSplineSet
EndChar

StartChar: degree
Encoding: 176 176 113
Width: 812
GlyphClass: 2
Flags: HW
LayerCount: 2
Fore
SplineSet
73 1371 m 128,-1,1
 73 1492 73 1492 164 1582 c 128,-1,2
 255 1672 255 1672 404 1672 c 128,-1,3
 553 1672 553 1672 644 1582 c 128,-1,4
 735 1492 735 1492 735 1371 c 128,-1,5
 735 1250 735 1250 644 1160 c 128,-1,6
 553 1070 553 1070 404 1070 c 128,-1,7
 255 1070 255 1070 164 1160 c 128,-1,0
 73 1250 73 1250 73 1371 c 128,-1,1
545 1371 m 128,-1,9
 545 1437 545 1437 505.5 1478.5 c 128,-1,10
 466 1520 466 1520 404 1520 c 128,-1,11
 342 1520 342 1520 302.5 1478.5 c 128,-1,12
 263 1437 263 1437 263 1371 c 128,-1,13
 263 1305 263 1305 302.5 1263.5 c 128,-1,14
 342 1222 342 1222 404 1222 c 128,-1,15
 466 1222 466 1222 505.5 1263.5 c 128,-1,8
 545 1305 545 1305 545 1371 c 128,-1,9
EndSplineSet
EndChar

StartChar: plusminus
Encoding: 177 177 114
Width: 1304
GlyphClass: 2
Flags: HW
LayerCount: 2
Fore
SplineSet
457 1214 m 1,0,-1
 457 1595 l 1,1,-1
 849 1595 l 1,2,-1
 849 1214 l 1,3,-1
 1213 1214 l 1,4,-1
 1213 881 l 1,5,-1
 849 881 l 1,6,-1
 849 503 l 1,7,-1
 457 503 l 1,8,-1
 457 881 l 1,9,-1
 92 881 l 1,10,-1
 92 1214 l 1,11,-1
 457 1214 l 1,0,-1
1064 300 m 1,12,-1
 1064 -1 l 1,13,-1
 230 -1 l 1,14,-1
 230 300 l 1,15,-1
 1064 300 l 1,12,-1
EndSplineSet
EndChar

StartChar: uni00B2
Encoding: 178 178 115
Width: 1090
GlyphClass: 2
Flags: HW
LayerCount: 2
Fore
SplineSet
188 878 m 1,0,1
 188 1209 188 1209 584.25 1209 c 0,2,3
 812.97260274 1209 812.97260274 1209 919.48630137 1139.57589286 c 128,-1,4
 1026 1070.15178571 1026 1070.15178571 1026 876.320573708 c 0,5,6
 1026 621.677354646 1026 621.677354646 746.089642641 493.769836463 c 0,7,8
 638.674101539 444.685353108 638.674101539 444.685353108 595.837050769 413.842676554 c 128,-1,9
 553 383 553 383 553 332 c 1,10,-1
 986 332 l 1,11,-1
 986 134 l 1,12,-1
 189 134 l 1,13,-1
 189 313 l 2,14,15
 189 637.641025641 189 637.641025641 517 768 c 1,16,17
 653 823.25 653 823.25 653 877 c 2,18,-1
 653 1030 l 1,19,-1
 553 1030 l 1,20,-1
 553 836 l 1,21,-1
 189 836 l 1,22,-1
 188 878 l 1,0,1
EndSplineSet
EndChar

StartChar: uni00B3
Encoding: 179 179 116
Width: 1101
GlyphClass: 2
Flags: HW
LayerCount: 2
Fore
SplineSet
609.5 100 m 0,0,1
 180 100 180 100 180 471 c 0,2,3
 180 500 180 500 183 532 c 1,4,-1
 549 532 l 1,5,-1
 549 282 l 1,6,-1
 662 282 l 1,7,-1
 662 595 l 1,8,-1
 491 595 l 1,9,-1
 491 743 l 1,10,-1
 662 743 l 1,11,-1
 662 1027 l 1,12,-1
 549 1027 l 1,13,-1
 549 804 l 1,14,-1
 183 804 l 1,15,16
 180 833 180 833 180 859 c 0,17,18
 180 1050 180 1050 283.5 1127.5 c 128,-1,19
 387 1205 387 1205 603.5 1205 c 128,-1,20
 820 1205 820 1205 928 1131.5 c 128,-1,21
 1036 1058 1036 1058 1036 893.5 c 128,-1,22
 1036 729 1036 729 898 669 c 1,23,24
 1038 616.246376812 1038 616.246376812 1038 436.623188406 c 128,-1,25
 1038 257 1038 257 935 178.5 c 128,-1,26
 832 100 832 100 609.5 100 c 0,0,1
EndSplineSet
EndChar

StartChar: acute
Encoding: 180 180 117
Width: 873
GlyphClass: 2
Flags: HW
LayerCount: 2
Fore
SplineSet
83.5 1371 m 0,0,1
 25 1371 25 1371 25 1424.5 c 0,2,3
 25 1450 25 1450 59.5 1481 c 128,-1,4
 94 1512 94 1512 184 1595.5 c 128,-1,5
 274 1679 274 1679 368.892116183 1766.22406639 c 128,-1,6
 463.784232365 1853.44813278 463.784232365 1853.44813278 530.392116183 1891.72406639 c 128,-1,7
 597 1930 597 1930 665 1930 c 128,-1,8
 733 1930 733 1930 782.5 1877.5 c 128,-1,9
 832 1825 832 1825 832 1731.5 c 128,-1,10
 832 1638 832 1638 741.019271949 1584.76124197 c 128,-1,11
 650.038543897 1531.52248394 650.038543897 1531.52248394 520.519271949 1492.76124197 c 128,-1,12
 391 1454 391 1454 281 1423 c 128,-1,13
 171 1392 171 1392 138.5 1381.5 c 128,-1,14
 106 1371 106 1371 83.5 1371 c 0,0,1
EndSplineSet
EndChar

StartChar: paragraph
Encoding: 182 182 119
Width: 1318
GlyphClass: 2
Flags: HW
LayerCount: 2
Fore
SplineSet
591 659 m 1,0,1
 56 659 56 659 56 1107 c 0,2,3
 56 1441.9704142 56 1441.9704142 317.5 1541 c 0,4,5
 460.09375 1595 460.09375 1595 689 1595 c 2,6,-1
 1223 1595 l 1,7,-1
 1223 0 l 1,8,-1
 962 0 l 1,9,-1
 962 658 l 1,10,-1
 853 658 l 1,11,-1
 853 0 l 1,12,-1
 591 0 l 1,13,-1
 591 659 l 1,0,1
EndSplineSet
EndChar

StartChar: cedilla
Encoding: 184 184 120
Width: 948
GlyphClass: 2
Flags: HW
LayerCount: 2
Fore
SplineSet
561 -70 m 1,0,1
 791 -70 791 -70 791 -228 c 2,2,-1
 791 -323 l 2,3,4
 791 -421.567567568 791 -421.567567568 722.28125 -451.283783784 c 128,-1,5
 653.5625 -481 653.5625 -481 532.78125 -481 c 128,-1,6
 412 -481 412 -481 348 -448.5 c 128,-1,7
 284 -416 284 -416 284 -323 c 2,8,-1
 284 -267 l 1,9,-1
 511 -239 l 1,10,-1
 511 -371 l 1,11,-1
 574 -371 l 1,12,-1
 574 -180 l 1,13,-1
 384 -180 l 1,14,-1
 384 0 l 1,15,-1
 561 0 l 1,16,-1
 561 -70 l 1,0,1
EndSplineSet
EndChar

StartChar: uni00B9
Encoding: 185 185 121
Width: 731
GlyphClass: 2
Flags: HW
LayerCount: 2
Fore
SplineSet
115 1115 m 1,0,1
 252 1115 252 1115 342 1170 c 1,2,-1
 654 1170 l 1,3,-1
 654 130 l 1,4,-1
 259 130 l 1,5,-1
 259 971 l 1,6,-1
 115 971 l 1,7,-1
 115 1115 l 1,0,1
EndSplineSet
EndChar

StartChar: ordmasculine
Encoding: 186 186 122
Width: 1334
GlyphClass: 2
Flags: HW
LayerCount: 2
Fore
SplineSet
218 413 m 2,0,-1
 218 893 l 2,1,2
 218 1068.47727273 218 1068.47727273 324.983430799 1124.40042974 c 128,-1,3
 431.966861598 1180.32358674 431.966861598 1180.32358674 530.054859371 1192.16179337 c 128,-1,4
 628.142857143 1204 628.142857143 1204 717.571428571 1204 c 128,-1,5
 807 1204 807 1204 853.5 1202 c 128,-1,6
 900 1200 900 1200 957 1192.5 c 128,-1,7
 1014 1185 1014 1185 1055.5 1172 c 0,8,9
 1265 1106.37349398 1265 1106.37349398 1265 892 c 2,10,-1
 1265 412 l 2,11,12
 1265 259.930232558 1265 259.930232558 1202.5 211.965116279 c 128,-1,13
 1140 164 1140 164 1098.5 143.5 c 128,-1,14
 1057 123 1057 123 986.5 114 c 128,-1,15
 916 105 916 105 870 102.5 c 128,-1,16
 824 100 824 100 751.5 99.5 c 128,-1,17
 679 99 679 99 634 100.5 c 128,-1,18
 589 102 589 102 529.5 109 c 128,-1,19
 470 116 470 116 429.5 128.5 c 0,20,21
 218 193.777777778 218 193.777777778 218 413 c 2,0,-1
675 317 m 1,22,-1
 808 317 l 1,23,-1
 808 1014 l 1,24,-1
 675 1014 l 1,25,-1
 675 317 l 1,22,-1
EndSplineSet
EndChar

StartChar: guillemotright
Encoding: 187 187 123
Width: 1770
GlyphClass: 2
Flags: HW
LayerCount: 2
Fore
SplineSet
879 1278 m 0,0,1
 879 1364 879 1364 959.5 1364 c 0,2,3
 993 1364 993 1364 1025 1341 c 2,4,-1
 1552 961 l 1,5,6
 1639.79640193 896.197893813 1639.79640193 896.197893813 1640.89820097 776.303492361 c 128,-1,7
 1642 656.409090909 1642 656.409090909 1552 593 c 1,8,-1
 1025 213 l 1,9,10
 995 190 995 190 961.5 190 c 0,11,12
 881 190 881 190 881 278 c 0,13,14
 881 315 881 315 904 345 c 2,15,-1
 1238 777 l 1,16,-1
 904 1209 l 2,17,18
 879 1242 879 1242 879 1278 c 0,0,1
144 1277.5 m 0,19,20
 144 1364 144 1364 224 1364 c 0,21,22
 258 1364 258 1364 290 1341 c 2,23,-1
 816 961 l 1,24,25
 903.796401931 896.197893813 903.796401931 896.197893813 904.898200965 776.303492361 c 128,-1,26
 906 656.409090909 906 656.409090909 816 593 c 1,27,-1
 290 213 l 2,28,29
 259 190 259 190 225.5 190 c 0,30,31
 146 190 146 190 146 279 c 0,32,33
 146 317 146 317 168 345 c 2,34,-1
 502 777 l 1,35,-1
 168 1209 l 2,36,37
 144 1241 144 1241 144 1277.5 c 0,19,20
EndSplineSet
EndChar

StartChar: AE
Encoding: 198 198 134
Width: 2011
GlyphClass: 2
Flags: HW
LayerCount: 2
Fore
SplineSet
1946 1595 m 1,0,-1
 1946 1354 l 1,1,-1
 1605 1354 l 1,2,-1
 1605 961 l 1,3,-1
 1923 961 l 1,4,-1
 1923 711 l 1,5,-1
 1605 711 l 1,6,-1
 1605 244 l 1,7,-1
 1946 244 l 1,8,-1
 1946 0 l 1,9,-1
 987 0 l 1,10,-1
 987 348 l 1,11,-1
 774 348 l 1,12,-1
 663 0 l 1,13,-1
 38 0 l 1,14,-1
 673 1595 l 1,15,-1
 1946 1595 l 1,0,-1
987 578 m 1,16,-1
 987 1001 l 1,17,-1
 847 578 l 1,18,-1
 987 578 l 1,16,-1
EndSplineSet
EndChar

StartChar: Eth
Encoding: 208 208 144
Width: 1449
GlyphClass: 2
Flags: HW
LayerCount: 2
Fore
SplineSet
773 868 m 1,0,-1
 773 726 l 1,1,-1
 52 726 l 1,2,-1
 52 868 l 1,3,-1
 773 868 l 1,0,-1
645 237 m 1,4,-1
 881 237 l 1,5,-1
 881 1358 l 1,6,-1
 645 1358 l 1,7,-1
 645 237 l 1,4,-1
146 0 m 1,8,-1
 146 1595 l 1,9,-1
 817 1595 l 2,10,11
 1358.40963855 1595 1358.40963855 1595 1375 1289 c 0,12,13
 1378 1244 1378 1244 1378 1204 c 2,14,-1
 1378 393 l 1,15,-1
 1376 392 l 1,16,17
 1376 261 1376 261 1338 185.5 c 0,18,19
 1244.63576159 -4.26325641456e-14 1244.63576159 -4.26325641456e-14 817 0 c 2,20,-1
 146 0 l 1,8,-1
EndSplineSet
EndChar

StartChar: multiply
Encoding: 215 215 151
Width: 1310
GlyphClass: 2
Flags: HW
LayerCount: 2
Fore
SplineSet
1266 924 m 1,0,-1
 1008 649 l 1,1,-1
 1266 375 l 1,2,-1
 917 4 l 1,3,-1
 660 279 l 1,4,-1
 401 4 l 1,5,-1
 53 375 l 1,6,-1
 311 649 l 1,7,-1
 53 924 l 1,8,-1
 401 1294 l 1,9,-1
 660 1020 l 1,10,-1
 917 1294 l 1,11,-1
 1266 924 l 1,0,-1
EndSplineSet
EndChar

StartChar: Oslash
Encoding: 216 216 152
Width: 1542
GlyphClass: 2
Flags: HW
LayerCount: 2
Fore
SplineSet
1275 1817 m 1,0,-1
 1396 1716 l 1,1,-1
 242 -166 l 1,2,-1
 114 -70 l 1,3,-1
 1275 1817 l 1,0,-1
695 235 m 1,4,-1
 868 235 l 1,5,-1
 868 1362 l 1,6,-1
 695 1362 l 1,7,-1
 695 235 l 1,4,-1
90 370 m 2,8,-1
 90 1226 l 2,9,10
 90 1417.63247863 90 1417.63247863 234.459302326 1523.81623932 c 128,-1,11
 378.918604651 1630 378.918604651 1630 830.266994633 1630 c 128,-1,12
 1281.61538462 1630 1281.61538462 1630 1417 1438 c 0,13,14
 1472 1360 1472 1360 1472 1226 c 2,15,-1
 1472 370 l 2,16,17
 1472 149.651376147 1472 149.651376147 1300.64166667 55.3256880734 c 128,-1,18
 1129.28333333 -39 1129.28333333 -39 778 -39 c 1,19,-1
 779 -41 l 1,20,21
 135.329479769 -41 135.329479769 -41 96 283 c 0,22,23
 90 330 90 330 90 370 c 2,8,-1
EndSplineSet
EndChar

StartChar: Thorn
Encoding: 222 222 158
Width: 1534
GlyphClass: 2
Flags: HW
LayerCount: 2
Fore
SplineSet
104 1599 m 1,0,-1
 706 1599 l 1,1,-1
 706 1413 l 1,2,-1
 843 1413 l 2,3,4
 1449.30909091 1413 1449.30909091 1413 1466 1107 c 0,5,6
 1469 1062 1469 1062 1469 1022 c 2,7,-1
 1469 641 l 2,8,9
 1469 413.388235294 1469 413.388235294 1318.04347826 331.694117647 c 128,-1,10
 1167.08695652 250 1167.08695652 250 843 250 c 2,11,-1
 706 250 l 1,12,-1
 706 0 l 1,13,-1
 104 0 l 1,14,-1
 104 1599 l 1,0,-1
706 482 m 1,15,-1
 869 482 l 1,16,-1
 869 1182 l 1,17,-1
 706 1182 l 1,18,-1
 706 482 l 1,15,-1
EndSplineSet
EndChar

StartChar: germandbls
Encoding: 223 223 159
Width: 1389
GlyphClass: 2
Flags: HW
LayerCount: 2
Fore
SplineSet
595 -205 m 1,0,-1
 99 -205 l 1,1,-1
 99 1217 l 2,2,3
 99 1397.29411765 99 1397.29411765 223.481481481 1496.14705882 c 128,-1,4
 347.962962963 1595 347.962962963 1595 636.481481481 1595 c 128,-1,5
 925 1595 925 1595 1058 1539 c 0,6,7
 1258 1454.78947368 1258 1454.78947368 1258 1220.39473684 c 0,8,9
 1258 891.473684211 1258 891.473684211 986 870 c 1,10,11
 1204.27063216 857.760525299 1204.27063216 857.760525299 1293 703 c 0,12,13
 1327 644 1327 644 1327 553 c 2,14,-1
 1327 258 l 2,15,16
 1327 87 1327 87 1192.41463415 25 c 128,-1,17
 1057.82926829 -37 1057.82926829 -37 776 -37 c 2,18,-1
 692 -37 l 1,19,-1
 692 194 l 1,20,-1
 831 194 l 1,21,-1
 831 750 l 1,22,-1
 719 750 l 1,23,-1
 719 981 l 1,24,-1
 831 981 l 1,25,-1
 831 1358 l 1,26,-1
 595 1358 l 1,27,-1
 595 -205 l 1,0,-1
EndSplineSet
EndChar

StartChar: ae
Encoding: 230 230 166
Width: 2144
GlyphClass: 2
Flags: HW
LayerCount: 2
Fore
SplineSet
593.5 -36 m 0,0,1
 69 -36 69 -36 69 394 c 128,-1,2
 69 824 69 824 538 824 c 0,3,4
 674 824 674 824 787 783 c 1,5,-1
 787 1054 l 1,6,-1
 664 1054 l 1,7,-1
 664 915 l 1,8,9
 416 906.545454545 416 906.545454545 140 894 c 1,10,11
 129 958 129 958 129 1014 c 0,12,13
 129 1343 129 1343 697.49 1343 c 0,14,15
 961 1343 961 1343 1074 1261 c 1,16,-1
 1072 1263 l 1,17,18
 1197 1345 1197 1345 1458 1345 c 0,19,20
 2044.80368098 1345 2044.80368098 1345 2071 1040 c 0,21,22
 2075 1001 2075 1001 2075 956 c 2,23,-1
 2075 606 l 1,24,-1
 1359 606 l 1,25,-1
 1359 252 l 1,26,-1
 1503 252 l 1,27,-1
 1503 501 l 1,28,-1
 2074 501 l 1,29,-1
 2074 354 l 1,30,31
 2070.00480769 166.225961538 2070.00480769 166.225961538 1940.00240385 65.1129807692 c 128,-1,32
 1810 -36 1810 -36 1516.5 -36 c 128,-1,33
 1223 -36 1223 -36 1079 77 c 1,34,35
 882 -36 882 -36 593.5 -36 c 0,0,1
637 604 m 1,36,-1
 637 252 l 1,37,-1
 787 252 l 1,38,-1
 787 604 l 1,39,-1
 637 604 l 1,36,-1
1359 801 m 1,40,-1
 1503 801 l 1,41,-1
 1503 1055 l 1,42,-1
 1359 1055 l 1,43,-1
 1359 801 l 1,40,-1
EndSplineSet
EndChar

StartChar: eth
Encoding: 240 240 176
Width: 1395
GlyphClass: 2
Flags: HW
LayerCount: 2
Fore
SplineSet
991 1578 m 1,0,1
 1337 1246.35684647 1337 1246.35684647 1337 860.557733581 c 128,-1,2
 1337 474.75862069 1337 474.75862069 1302.81872636 334.497532287 c 0,3,4
 1252.42902396 127.725994853 1252.42902396 127.725994853 1119 45 c 1,5,6
 984 -37 984 -37 658.75 -37 c 0,7,8
 210 -37 210 -37 106.5 236 c 0,9,10
 72 327 72 327 72 522 c 128,-1,11
 72 717 72 717 112.5 838 c 0,12,13
 199.190082645 1097 199.190082645 1097 623 1097 c 2,14,-1
 763 1097 l 1,15,16
 763 1194.92857143 763 1194.92857143 624 1324 c 1,17,-1
 372 1151 l 1,18,-1
 302 1275 l 1,19,-1
 507 1416 l 1,20,21
 406 1482 406 1482 353 1510 c 2,22,-1
 286 1546 l 1,23,-1
 510 1887 l 1,24,-1
 511 1889 l 1,25,26
 711 1806 711 1806 880 1674 c 1,27,-1
 1088 1817 l 1,28,-1
 1159 1694 l 1,29,-1
 991 1578 l 1,0,1
762 828 m 1,30,-1
 640 828 l 1,31,-1
 640 238 l 1,32,-1
 762 238 l 1,33,-1
 762 828 l 1,30,-1
EndSplineSet
EndChar

StartChar: divide
Encoding: 247 247 183
Width: 1286
GlyphClass: 2
Flags: HW
LayerCount: 2
Fore
SplineSet
901 92 m 1,0,-1
 394 92 l 1,1,-1
 394 559 l 1,2,-1
 901 559 l 1,3,-1
 901 92 l 1,0,-1
901 1000 m 1,4,-1
 394 1000 l 1,5,-1
 394 1497 l 1,6,-1
 901 1497 l 1,7,-1
 901 1000 l 1,4,-1
1229 908 m 1,8,-1
 1229 670 l 1,9,-1
 67 670 l 1,10,-1
 67 908 l 1,11,-1
 1229 908 l 1,8,-1
EndSplineSet
EndChar

StartChar: oslash
Encoding: 248 248 184
Width: 1465
GlyphClass: 2
Flags: HW
LayerCount: 2
Fore
SplineSet
1347 144.5 m 0,0,1
 1230.33774834 -39 1230.33774834 -39 801.99090807 -39 c 128,-1,2
 373.644067797 -39 373.644067797 -39 215 65 c 1,3,-1
 114 -39 l 1,4,-1
 56 19 l 1,5,-1
 153 118 l 1,6,7
 86 194 86 194 86 352 c 2,8,-1
 86 952 l 2,9,10
 86 1140.64220183 86 1140.64220183 218.873493976 1241.82110092 c 128,-1,11
 351.746987952 1343 351.746987952 1343 745 1343 c 1,12,-1
 744 1344 l 1,13,14
 1093.67924528 1344 1093.67924528 1344 1255 1249 c 1,15,-1
 1348 1344 l 1,16,-1
 1406 1286 l 1,17,-1
 1320 1198 l 1,18,19
 1395 1122 1395 1122 1395 952 c 2,20,-1
 1395 352 l 2,21,22
 1395 220 1395 220 1347 144.5 c 0,0,1
657 234 m 1,23,-1
 823 234 l 1,24,-1
 823 689 l 1,25,-1
 657 519 l 1,26,-1
 657 234 l 1,23,-1
823 1106 m 1,27,-1
 657 1106 l 1,28,-1
 657 636 l 1,29,-1
 823 806 l 1,30,-1
 823 1106 l 1,27,-1
EndSplineSet
EndChar

StartChar: thorn
Encoding: 254 254 190
Width: 1430
GlyphClass: 2
Flags: HW
LayerCount: 2
Fore
SplineSet
674 1225 m 1,0,1
 718.701754386 1323 718.701754386 1323 931.350877193 1323 c 0,2,3
 1346.65116279 1323 1346.65116279 1323 1360 995 c 0,4,5
 1362 933 1362 933 1362 908 c 2,6,-1
 1362 390 l 2,7,8
 1362 262 1362 262 1334.5 179.5 c 0,9,10
 1266.66666667 -24 1266.66666667 -24 948 -24 c 0,11,12
 753.7 -24 753.7 -24 717.35 22.5 c 128,-1,13
 681 69 681 69 675 78 c 1,14,-1
 675 -409 l 1,15,-1
 104 -409 l 1,16,-1
 104 1602 l 1,17,-1
 675 1602 l 1,18,-1
 675 1225 l 1,19,-1
 674 1225 l 1,0,1
674 231 m 1,20,-1
 788 231 l 1,21,-1
 788 1069 l 1,22,-1
 674 1069 l 1,23,-1
 674 231 l 1,20,-1
EndSplineSet
EndChar

StartChar: Dcroat
Encoding: 272 272 206
Width: 1449
GlyphClass: 2
Flags: HW
LayerCount: 2
Fore
SplineSet
773 868 m 1,0,-1
 773 726 l 1,1,-1
 52 726 l 1,2,-1
 52 868 l 1,3,-1
 773 868 l 1,0,-1
645 237 m 1,4,-1
 881 237 l 1,5,-1
 881 1358 l 1,6,-1
 645 1358 l 1,7,-1
 645 237 l 1,4,-1
146 0 m 1,8,-1
 146 1595 l 1,9,-1
 817 1595 l 2,10,11
 1358.40963855 1595 1358.40963855 1595 1375 1289 c 0,12,13
 1378 1244 1378 1244 1378 1204 c 2,14,-1
 1378 393 l 1,15,-1
 1376 392 l 1,16,17
 1376 261 1376 261 1338 185.5 c 0,18,19
 1244.63576159 -4.26325641456e-14 1244.63576159 -4.26325641456e-14 817 0 c 2,20,-1
 146 0 l 1,8,-1
EndSplineSet
EndChar

StartChar: gcommaaccent
Encoding: 291 291 219
Width: 1470
GlyphClass: 2
Flags: HW
LayerCount: 2
Fore
SplineSet
508 91 m 0,0,1
 88 91 88 91 88 482 c 2,2,-1
 88 927 l 2,3,4
 88 1327 88 1327 511 1327 c 1,5,-1
 511 1326 l 1,6,7
 747 1326 747 1326 850 1187 c 1,8,-1
 886 1299 l 1,9,-1
 1397 1299 l 1,10,-1
 1397 236 l 2,11,12
 1397 -78 1397 -78 1222.5 -225 c 128,-1,13
 1048 -372 1048 -372 735 -372 c 128,-1,14
 422 -372 422 -372 201 -311 c 1,15,-1
 258 -20 l 1,16,17
 446.579010856 -71.4306393245 446.579010856 -71.4306393245 618.789505428 -60.7153196622 c 128,-1,18
 791 -50 791 -50 839 -22 c 1,19,-1
 839 205 l 1,20,21
 749 91 749 91 508 91 c 0,0,1
826 1104 m 1,22,-1
 659 1104 l 1,23,-1
 659 316 l 1,24,-1
 826 316 l 1,25,-1
 826 1104 l 1,22,-1
EndSplineSet
EndChar

StartChar: Hbar
Encoding: 294 294 220
Width: 1703
GlyphClass: 2
Flags: HW
LayerCount: 2
Fore
SplineSet
1659 1349 m 1,0,-1
 1659 1158 l 1,1,-1
 54 1158 l 1,2,-1
 54 1349 l 1,3,-1
 1659 1349 l 1,0,-1
1553 1595 m 1,4,-1
 1553 0 l 1,5,-1
 948 0 l 1,6,-1
 948 688 l 1,7,-1
 755 688 l 1,8,-1
 755 0 l 1,9,-1
 151 0 l 1,10,-1
 151 1595 l 1,11,-1
 755 1595 l 1,12,-1
 755 938 l 1,13,-1
 948 938 l 1,14,-1
 948 1595 l 1,15,-1
 1553 1595 l 1,4,-1
EndSplineSet
EndChar

StartChar: hbar
Encoding: 295 295 221
Width: 1511
GlyphClass: 2
Flags: HW
LayerCount: 2
Fore
SplineSet
1188 1619 m 1,0,-1
 1188 1450 l 1,1,-1
 43 1450 l 1,2,-1
 43 1619 l 1,3,-1
 1188 1619 l 1,0,-1
702 1210 m 1,4,5
 783.046875 1343 783.046875 1343 1023 1343 c 0,6,7
 1439 1343 1439 1343 1439 945 c 2,8,-1
 1439 0 l 1,9,-1
 868 0 l 1,10,-1
 868 1065 l 1,11,-1
 702 1065 l 1,12,-1
 702 0 l 1,13,-1
 130 0 l 1,14,-1
 130 1710 l 1,15,-1
 702 1710 l 1,16,-1
 702 1210 l 1,4,5
EndSplineSet
EndChar

StartChar: dotlessi
Encoding: 305 305 231
Width: 744
GlyphClass: 2
Flags: HW
LayerCount: 2
Fore
SplineSet
669 0 m 1,0,-1
 100 0 l 1,1,-1
 100 1298 l 1,2,-1
 669 1298 l 1,3,-1
 669 0 l 1,0,-1
EndSplineSet
EndChar

StartChar: IJ
Encoding: 306 306 232
Width: 1667
GlyphClass: 2
Flags: HW
LayerCount: 2
Fore
SplineSet
720 1595 m 1,0,-1
 720 0 l 1,1,-1
 116 0 l 1,2,-1
 116 1595 l 1,3,-1
 720 1595 l 1,0,-1
1596 334 m 2,4,5
 1596 -75 1596 -75 916 -75 c 1,6,-1
 916 -76 l 1,7,8
 883 -76 883 -76 819 -74 c 1,9,-1
 819 198 l 1,10,-1
 992 198 l 1,11,-1
 992 1594 l 1,12,-1
 1596 1594 l 1,13,-1
 1596 334 l 2,4,5
EndSplineSet
EndChar

StartChar: ij
Encoding: 307 307 233
Width: 1646
GlyphClass: 2
Flags: HW
LayerCount: 2
Fore
SplineSet
678 0 m 1,0,-1
 107 0 l 1,1,-1
 107 1300 l 1,2,-1
 678 1300 l 1,3,-1
 678 0 l 1,0,-1
678 1709 m 1,4,-1
 678 1425 l 1,5,-1
 107 1425 l 1,6,-1
 107 1709 l 1,7,-1
 678 1709 l 1,4,-1
1561 94 m 2,8,9
 1561 -326 1561 -326 1100 -326 c 0,10,11
 936 -326 936 -326 830 -305 c 1,12,-1
 800 -66 l 1,13,-1
 989 -66 l 1,14,-1
 989 1300 l 1,15,-1
 1561 1300 l 1,16,-1
 1561 94 l 2,8,9
1561 1709 m 1,17,-1
 1561 1425 l 1,18,-1
 989 1425 l 1,19,-1
 989 1709 l 1,20,-1
 1561 1709 l 1,17,-1
EndSplineSet
EndChar

StartChar: kgreenlandic
Encoding: 312 312 238
Width: 1590
GlyphClass: 2
Flags: HW
LayerCount: 2
Fore
SplineSet
100 0 m 1,0,-1
 100 1299 l 1,1,-1
 684 1299 l 1,2,-1
 684 858 l 1,3,-1
 952 1300 l 1,4,-1
 1538 1300 l 1,5,-1
 1203 790 l 1,6,-1
 1561 0 l 1,7,-1
 986 0 l 1,8,-1
 797 455 l 1,9,-1
 684 318 l 1,10,-1
 684 0 l 1,11,-1
 100 0 l 1,0,-1
EndSplineSet
EndChar

StartChar: Ldot
Encoding: 319 319 245
Width: 1094
GlyphClass: 2
Flags: HW
LayerCount: 2
Fore
SplineSet
1340 950 m 1,0,-1
 833 950 l 1,1,-1
 833 1417 l 1,2,-1
 1340 1417 l 1,3,-1
 1340 950 l 1,0,-1
103 0 m 1,4,-1
 103 1595 l 1,5,-1
 707 1595 l 1,6,-1
 707 241 l 1,7,-1
 1048 241 l 1,8,-1
 1048 0 l 1,9,-1
 103 0 l 1,4,-1
EndSplineSet
EndChar

StartChar: ldot
Encoding: 320 320 246
Width: 1313
GlyphClass: 2
Flags: HW
LayerCount: 2
Fore
SplineSet
1313 655 m 1,0,-1
 806 655 l 1,1,-1
 806 1122 l 1,2,-1
 1313 1122 l 1,3,-1
 1313 655 l 1,0,-1
676 0 m 1,4,-1
 105 0 l 1,5,-1
 105 1710 l 1,6,-1
 676 1710 l 1,7,-1
 676 0 l 1,4,-1
EndSplineSet
EndChar

StartChar: Lslash
Encoding: 321 321 247
Width: 1534
GlyphClass: 2
Flags: HW
LayerCount: 2
Fore
SplineSet
1320 1072 m 1,0,-1
 72 410 l 1,1,-1
 72 750 l 1,2,-1
 1320 1410 l 1,3,-1
 1320 1072 l 1,0,-1
377 0 m 1,4,-1
 377 1595 l 1,5,-1
 981 1595 l 1,6,-1
 981 241 l 1,7,-1
 1322 241 l 1,8,-1
 1322 0 l 1,9,-1
 377 0 l 1,4,-1
EndSplineSet
EndChar

StartChar: lslash
Encoding: 322 322 248
Width: 1145
GlyphClass: 2
Flags: HW
LayerCount: 2
Fore
SplineSet
1094 1023 m 1,0,-1
 64 539 l 1,1,-1
 64 788 l 1,2,-1
 1094 1271 l 1,3,-1
 1094 1023 l 1,0,-1
852 0 m 1,4,-1
 281 0 l 1,5,-1
 281 1710 l 1,6,-1
 852 1710 l 1,7,-1
 852 0 l 1,4,-1
EndSplineSet
EndChar

StartChar: OE
Encoding: 338 338 261
Width: 1832
GlyphClass: 2
Flags: HW
LayerCount: 2
Fore
SplineSet
722 0 m 1,0,-1
 722 -1 l 1,1,2
 114.862068966 -1 114.862068966 -1 95 287 c 0,3,4
 92 330 92 330 92 371 c 2,5,-1
 92 1227 l 2,6,7
 92 1355 92 1355 136 1425 c 0,8,9
 242.857142857 1595 242.857142857 1595 722 1595 c 2,10,-1
 1768 1595 l 1,11,-1
 1768 1354 l 1,12,-1
 1424 1354 l 1,13,-1
 1424 961 l 1,14,-1
 1744 961 l 1,15,-1
 1744 711 l 1,16,-1
 1424 711 l 1,17,-1
 1424 244 l 1,18,-1
 1768 244 l 1,19,-1
 1768 0 l 1,20,-1
 722 0 l 1,0,-1
678 232 m 1,21,-1
 792 232 l 1,22,-1
 792 1363 l 1,23,-1
 678 1363 l 1,24,-1
 678 232 l 1,21,-1
EndSplineSet
EndChar

StartChar: oe
Encoding: 339 339 262
Width: 2136
GlyphClass: 2
Flags: HW
LayerCount: 2
Fore
SplineSet
127.5 1141.5 m 128,-1,1
 170 1217 170 1217 295 1273.5 c 128,-1,2
 420 1330 420 1330 715.073170732 1330 c 128,-1,3
 1010.14634146 1330 1010.14634146 1330 1074 1211 c 1,4,5
 1151 1330 1151 1330 1443.5 1330 c 0,6,7
 2052.22352941 1330 2052.22352941 1330 2067 1016 c 0,8,9
 2069 956 2069 956 2069 931 c 2,10,-1
 2065 620 l 1,11,-1
 1351 620 l 1,12,-1
 1351 249 l 1,13,-1
 1502 249 l 1,14,-1
 1502 554 l 1,15,-1
 2069 554 l 1,16,-1
 2069 368 l 2,17,18
 2069 118.793814433 2069 118.793814433 1902.5 45.3969072165 c 128,-1,19
 1736 -28 1736 -28 1433.91666667 -28 c 128,-1,20
 1131.83333333 -28 1131.83333333 -28 1075 96 c 1,21,22
 1012 -30 1012 -30 717.5 -30 c 0,23,24
 104.615384615 -30 104.615384615 -30 88 282 c 0,25,26
 85 327 85 327 85 367 c 2,27,-1
 85 930 l 2,28,0
 85 1066 85 1066 127.5 1141.5 c 128,-1,1
649 248 m 1,29,-1
 799 248 l 1,30,-1
 799 1051 l 1,31,-1
 649 1051 l 1,32,-1
 649 248 l 1,29,-1
1350 825 m 1,33,-1
 1501 825 l 1,34,-1
 1501 1051 l 1,35,-1
 1350 1051 l 1,36,-1
 1350 825 l 1,33,-1
EndSplineSet
EndChar

StartChar: uni0237
Encoding: 567 567 298
Width: 868
GlyphClass: 2
Flags: HW
LayerCount: 2
Fore
SplineSet
784 94 m 2,0,1
 784 -326 784 -326 323 -326 c 0,2,3
 159 -326 159 -326 53 -305 c 1,4,-1
 23 -66 l 1,5,-1
 212 -66 l 1,6,-1
 212 1300 l 1,7,-1
 784 1300 l 1,8,-1
 784 94 l 2,0,1
EndSplineSet
EndChar

StartChar: circumflex
Encoding: 710 710 299
Width: 954
GlyphClass: 2
Flags: HW
LayerCount: 2
Fore
SplineSet
120 1413 m 0,0,1
 54 1413 54 1413 54 1473 c 0,2,3
 54 1498 54 1498 72 1527 c 2,4,-1
 335 1936 l 2,5,6
 380.257142857 2008 380.257142857 2008 476.128571429 2008 c 128,-1,7
 572 2008 572 2008 619 1936 c 2,8,-1
 882 1527 l 2,9,10
 900 1498 900 1498 900 1472.5 c 0,11,12
 900 1411 900 1411 836 1411 c 0,13,14
 808 1411 808 1411 780 1433 c 2,15,-1
 477 1668 l 1,16,-1
 174 1433 l 2,17,18
 148 1413 148 1413 120 1413 c 0,0,1
EndSplineSet
EndChar

StartChar: caron
Encoding: 711 711 300
Width: 954
GlyphClass: 2
Flags: HW
LayerCount: 2
Fore
SplineSet
836 2008 m 0,0,1
 900 2008 900 2008 900 1946 c 0,2,3
 900 1920 900 1920 882 1892 c 2,4,-1
 619 1483 l 2,5,6
 572 1411 572 1411 476.128571429 1411 c 128,-1,7
 380.257142857 1411 380.257142857 1411 335 1483 c 2,8,-1
 72 1892 l 2,9,10
 54 1920 54 1920 54 1945.5 c 0,11,12
 54 2006 54 2006 120 2006 c 0,13,14
 148 2006 148 2006 174 1986 c 2,15,-1
 477 1751 l 1,16,-1
 780 1986 l 2,17,18
 808 2008 808 2008 836 2008 c 0,0,1
EndSplineSet
EndChar

StartChar: breve
Encoding: 728 728 301
Width: 1062
GlyphClass: 2
Flags: HW
LayerCount: 2
Fore
SplineSet
999 1879 m 1,0,1
 999 1590.09803922 999 1590.09803922 876.5375 1494.04901961 c 128,-1,2
 754.075 1398 754.075 1398 589.5375 1398 c 128,-1,3
 425 1398 425 1398 342.5 1421.5 c 0,4,5
 186.60938459 1465.9052056 186.60938459 1465.9052056 130.804692295 1581.17391428 c 128,-1,6
 75 1696.44262295 75 1696.44262295 75 1879 c 1,7,-1
 372 1879 l 1,8,9
 372 1737 372 1737 426 1719 c 128,-1,10
 480 1701 480 1701 537 1701 c 0,11,12
 649.796296296 1701 649.796296296 1701 675.898148148 1746.46774194 c 128,-1,13
 702 1791.93548387 702 1791.93548387 702 1879 c 1,14,-1
 999 1879 l 1,0,1
EndSplineSet
EndChar

StartChar: dotaccent
Encoding: 729 729 302
Width: 670
GlyphClass: 2
Flags: HW
LayerCount: 2
Fore
SplineSet
591 0 m 1,0,-1
 84 0 l 1,1,-1
 84 467 l 1,2,-1
 591 467 l 1,3,-1
 591 0 l 1,0,-1
EndSplineSet
EndChar

StartChar: ring
Encoding: 730 730 303
Width: 805
GlyphClass: 2
Flags: HW
LayerCount: 2
Fore
SplineSet
72 451 m 128,-1,1
 72 537 72 537 151.577922078 644.5 c 128,-1,2
 231.155844156 752 231.155844156 752 372.577922078 752 c 128,-1,3
 514 752 514 752 594 697 c 128,-1,4
 674 642 674 642 706 569 c 128,-1,5
 738 496 738 496 738 410 c 128,-1,6
 738 324 738 324 657.046052632 217 c 128,-1,7
 576.092105263 110 576.092105263 110 436.046052632 110 c 128,-1,8
 296 110 296 110 216 164.5 c 128,-1,9
 136 219 136 219 104 292 c 128,-1,0
 72 365 72 365 72 451 c 128,-1,1
402.5 552 m 128,-1,11
 351 552 351 552 316.5 517.5 c 128,-1,12
 282 483 282 483 282 431 c 128,-1,13
 282 379 282 379 317 344 c 128,-1,14
 352 309 352 309 402.5 309 c 128,-1,15
 453 309 453 309 488.5 344.5 c 128,-1,16
 524 380 524 380 524 431 c 128,-1,17
 524 482 524 482 489 517 c 128,-1,10
 454 552 454 552 402.5 552 c 128,-1,11
EndSplineSet
EndChar

StartChar: ogonek
Encoding: 731 731 304
Width: 693
GlyphClass: 2
Flags: HW
LayerCount: 2
Fore
SplineSet
506 0 m 1,0,1
 396 -73.3333333333 396 -73.3333333333 396 -188.166666667 c 128,-1,2
 396 -303 396 -303 518.5 -303 c 0,3,4
 578 -303 578 -303 656 -274 c 1,5,-1
 656 -589 l 1,6,7
 548 -630 548 -630 426.5 -630 c 128,-1,8
 305 -630 305 -630 215 -538 c 128,-1,9
 125 -446 125 -446 125 -322.5 c 0,10,11
 125 -48.7792207792 125 -48.7792207792 435 72 c 1,12,-1
 506 0 l 1,0,1
EndSplineSet
EndChar

StartChar: tilde
Encoding: 732 732 305
Width: 1422
GlyphClass: 2
Flags: HW
LayerCount: 2
Fore
SplineSet
1066 96 m 1,0,1
 1066 260 1066 260 956 260 c 0,2,3
 913.482758621 260 913.482758621 260 795.551724138 165 c 128,-1,4
 677.620689655 70 677.620689655 70 496.310344828 70 c 128,-1,5
 315 70 315 70 228 145 c 128,-1,6
 141 220 141 220 110 345 c 128,-1,7
 79 470 79 470 79 621 c 1,8,-1
 375 621 l 1,9,10
 375 453 375 453 487 453 c 0,11,12
 501 453 501 453 511.5 456 c 128,-1,13
 522 459 522 459 527.5 460.5 c 128,-1,14
 533 462 533 462 540.5 466.5 c 128,-1,15
 548 471 548 471 551.5 473 c 128,-1,16
 555 475 555 475 563.5 480.5 c 128,-1,17
 572 486 572 486 574 487.5 c 128,-1,18
 576 489 576 489 585 495.5 c 128,-1,19
 594 502 594 502 621 522 c 0,20,21
 788.4 646 788.4 646 908.7 646 c 128,-1,22
 1029 646 1029 646 1088.5 633.5 c 128,-1,23
 1148 621 1148 621 1191 598.5 c 128,-1,24
 1234 576 1234 576 1264 538.5 c 0,25,26
 1359 419.75 1359 419.75 1359 96 c 1,27,-1
 1066 96 l 1,0,1
EndSplineSet
EndChar

StartChar: hungarumlaut
Encoding: 733 733 306
Width: 873
GlyphClass: 2
Flags: HW
LayerCount: 2
Fore
SplineSet
804.5 1371 m 0,0,1
 746 1371 746 1371 746 1424.5 c 0,2,3
 746 1450 746 1450 780.5 1481 c 128,-1,4
 815 1512 815 1512 905 1595.5 c 128,-1,5
 995 1679 995 1679 1089.89211618 1766.22406639 c 128,-1,6
 1184.78423237 1853.44813278 1184.78423237 1853.44813278 1251.39211618 1891.72406639 c 128,-1,7
 1318 1930 1318 1930 1386 1930 c 128,-1,8
 1454 1930 1454 1930 1503.5 1877.5 c 128,-1,9
 1553 1825 1553 1825 1553 1731.5 c 128,-1,10
 1553 1638 1553 1638 1462.01927195 1584.76124197 c 128,-1,11
 1371.0385439 1531.52248394 1371.0385439 1531.52248394 1241.51927195 1492.76124197 c 128,-1,12
 1112 1454 1112 1454 1002 1423 c 128,-1,13
 892 1392 892 1392 859.5 1381.5 c 128,-1,14
 827 1371 827 1371 804.5 1371 c 0,0,1
113.5 1371 m 0,15,16
 55 1371 55 1371 55 1424.5 c 0,17,18
 55 1450 55 1450 89.5 1481 c 128,-1,19
 124 1512 124 1512 214 1595.5 c 128,-1,20
 304 1679 304 1679 398.892116183 1766.22406639 c 128,-1,21
 493.784232365 1853.44813278 493.784232365 1853.44813278 560.392116183 1891.72406639 c 128,-1,22
 627 1930 627 1930 695 1930 c 128,-1,23
 763 1930 763 1930 812.5 1877.5 c 128,-1,24
 862 1825 862 1825 862 1731.5 c 128,-1,25
 862 1638 862 1638 771.019271949 1584.76124197 c 128,-1,26
 680.038543897 1531.52248394 680.038543897 1531.52248394 550.519271949 1492.76124197 c 128,-1,27
 421 1454 421 1454 311 1423 c 128,-1,28
 201 1392 201 1392 168.5 1381.5 c 128,-1,29
 136 1371 136 1371 113.5 1371 c 0,15,16
EndSplineSet
EndChar

StartChar: endash
Encoding: 8211 8211 310
Width: 1005
GlyphClass: 2
Flags: HW
LayerCount: 2
Fore
SplineSet
920 897 m 1,0,-1
 920 461 l 1,1,-1
 87 461 l 1,2,-1
 87 897 l 1,3,-1
 920 897 l 1,0,-1
EndSplineSet
EndChar

StartChar: emdash
Encoding: 8212 8212 311
Width: 1857
GlyphClass: 2
Flags: HW
LayerCount: 2
Fore
SplineSet
1772 897 m 1,0,-1
 1772 461 l 1,1,-1
 87 461 l 1,2,-1
 87 897 l 1,3,-1
 1772 897 l 1,0,-1
EndSplineSet
EndChar

StartChar: quoteleft
Encoding: 8216 8216 312
Width: 722
GlyphClass: 2
Flags: HW
LayerCount: 2
Fore
SplineSet
569 1186 m 128,-1,1
 569 1093 569 1093 511.5 1040 c 128,-1,2
 454 987 454 987 360.5 987 c 128,-1,3
 267 987 267 987 211 1055 c 128,-1,4
 155 1123 155 1123 155 1210 c 128,-1,5
 155 1297 155 1297 178.5 1367.5 c 128,-1,6
 202 1438 202 1438 245 1497 c 0,7,8
 341.93220339 1630 341.93220339 1630 502 1630 c 0,9,10
 524 1630 524 1630 546 1627 c 1,11,-1
 546 1518 l 1,12,13
 398.547105562 1515.65947787 398.547105562 1515.65947787 390 1396 c 1,14,15
 465 1388 465 1388 517 1333.5 c 128,-1,0
 569 1279 569 1279 569 1186 c 128,-1,1
EndSplineSet
EndChar

StartChar: quoteright
Encoding: 8217 8217 313
Width: 706
GlyphClass: 2
Flags: HW
LayerCount: 2
Fore
SplineSet
154 1431 m 128,-1,1
 154 1524 154 1524 214.5 1577 c 128,-1,2
 275 1630 275 1630 368 1630 c 128,-1,3
 461 1630 461 1630 514.5 1562 c 128,-1,4
 568 1494 568 1494 568 1407 c 128,-1,5
 568 1320 568 1320 544.5 1249.5 c 128,-1,6
 521 1179 521 1179 478 1120 c 0,7,8
 381.06779661 987 381.06779661 987 221 987 c 0,9,10
 200 987 200 987 177 990 c 1,11,-1
 177 1099 l 1,12,13
 324.452894438 1101.34052213 324.452894438 1101.34052213 333 1221 c 1,14,15
 258 1229 258 1229 206 1283.5 c 128,-1,0
 154 1338 154 1338 154 1431 c 128,-1,1
EndSplineSet
EndChar

StartChar: quotesinglbase
Encoding: 8218 8218 314
Width: 648
GlyphClass: 2
Flags: HW
LayerCount: 2
Fore
SplineSet
120 212.554794521 m 128,-1,1
 120 292 120 292 175 337.5 c 128,-1,2
 230 383 230 383 307 383 c 128,-1,3
 384 383 384 383 442.5 335.5 c 128,-1,4
 501 288 501 288 501 209.586666667 c 128,-1,5
 501 131.173333333 501 131.173333333 440 -75.4133333333 c 128,-1,6
 379 -282 379 -282 364.447916667 -345.5 c 128,-1,7
 349.895833333 -409 349.895833333 -409 308 -409 c 0,8,9
 269.275862069 -409 269.275862069 -409 253.137931034 -345.5 c 128,-1,10
 237 -282 237 -282 178.5 -74.4452054795 c 128,-1,0
 120 133.109589041 120 133.109589041 120 212.554794521 c 128,-1,1
EndSplineSet
EndChar

StartChar: quotedblleft
Encoding: 8220 8220 315
Width: 1339
GlyphClass: 2
Flags: HW
LayerCount: 2
Fore
SplineSet
1171 1186 m 128,-1,1
 1171 1093 1171 1093 1110.5 1040 c 128,-1,2
 1050 987 1050 987 957 987 c 128,-1,3
 864 987 864 987 810.5 1055 c 128,-1,4
 757 1123 757 1123 757 1210 c 128,-1,5
 757 1297 757 1297 780.5 1367.5 c 128,-1,6
 804 1438 804 1438 847 1497 c 0,7,8
 943.93220339 1630 943.93220339 1630 1104 1630 c 0,9,10
 1126 1630 1126 1630 1148 1627 c 1,11,-1
 1148 1518 l 1,12,13
 1000.54710556 1515.65947787 1000.54710556 1515.65947787 992 1396 c 1,14,15
 1067 1388 1067 1388 1119 1333.5 c 128,-1,0
 1171 1279 1171 1279 1171 1186 c 128,-1,1
668 1186 m 128,-1,17
 668 1093 668 1093 607.5 1040 c 128,-1,18
 547 987 547 987 454 987 c 128,-1,19
 361 987 361 987 307.5 1055 c 128,-1,20
 254 1123 254 1123 254 1210 c 128,-1,21
 254 1297 254 1297 277.5 1367.5 c 128,-1,22
 301 1438 301 1438 344 1497 c 0,23,24
 440.93220339 1630 440.93220339 1630 601 1630 c 0,25,26
 622 1630 622 1630 645 1627 c 1,27,-1
 645 1518 l 1,28,29
 497.547105562 1515.65947787 497.547105562 1515.65947787 489 1396 c 1,30,31
 564 1388 564 1388 616 1333.5 c 128,-1,16
 668 1279 668 1279 668 1186 c 128,-1,17
EndSplineSet
EndChar

StartChar: quotedblright
Encoding: 8221 8221 316
Width: 1327
GlyphClass: 2
Flags: HW
LayerCount: 2
Fore
SplineSet
254 1431 m 128,-1,1
 254 1524 254 1524 314.5 1577 c 128,-1,2
 375 1630 375 1630 468 1630 c 128,-1,3
 561 1630 561 1630 614.5 1562 c 128,-1,4
 668 1494 668 1494 668 1407 c 128,-1,5
 668 1320 668 1320 644.5 1249.5 c 128,-1,6
 621 1179 621 1179 578 1120 c 0,7,8
 481.06779661 987 481.06779661 987 321 987 c 0,9,10
 300 987 300 987 277 990 c 1,11,-1
 277 1099 l 1,12,13
 424.452894438 1101.34052213 424.452894438 1101.34052213 433 1221 c 1,14,15
 358 1229 358 1229 306 1283.5 c 128,-1,0
 254 1338 254 1338 254 1431 c 128,-1,1
757 1431 m 128,-1,17
 757 1524 757 1524 817.5 1577 c 128,-1,18
 878 1630 878 1630 971 1630 c 128,-1,19
 1064 1630 1064 1630 1117.5 1562 c 128,-1,20
 1171 1494 1171 1494 1171 1407 c 128,-1,21
 1171 1320 1171 1320 1147.5 1249.5 c 128,-1,22
 1124 1179 1124 1179 1081 1120 c 0,23,24
 984.06779661 987 984.06779661 987 824 987 c 0,25,26
 802 987 802 987 780 990 c 1,27,-1
 780 1099 l 1,28,29
 927.452894438 1101.34052213 927.452894438 1101.34052213 936 1221 c 1,30,31
 861 1229 861 1229 809 1283.5 c 128,-1,16
 757 1338 757 1338 757 1431 c 128,-1,17
EndSplineSet
EndChar

StartChar: quotedblbase
Encoding: 8222 8222 317
Width: 1229
GlyphClass: 2
Flags: HW
LayerCount: 2
Fore
SplineSet
156 212.554794521 m 128,-1,1
 156 292 156 292 211 337.5 c 128,-1,2
 266 383 266 383 343 383 c 128,-1,3
 420 383 420 383 478.5 335.5 c 128,-1,4
 537 288 537 288 537 209.586666667 c 128,-1,5
 537 131.173333333 537 131.173333333 476 -75.4133333333 c 128,-1,6
 415 -282 415 -282 400.447916667 -345.5 c 128,-1,7
 385.895833333 -409 385.895833333 -409 344 -409 c 0,8,9
 305.275862069 -409 305.275862069 -409 289.137931034 -345.5 c 128,-1,10
 273 -282 273 -282 214.5 -74.4452054795 c 128,-1,0
 156 133.109589041 156 133.109589041 156 212.554794521 c 128,-1,1
653 212.554794521 m 128,-1,12
 653 292 653 292 708 337.5 c 128,-1,13
 763 383 763 383 840 383 c 128,-1,14
 917 383 917 383 975.5 335.5 c 128,-1,15
 1034 288 1034 288 1034 209.586666667 c 128,-1,16
 1034 131.173333333 1034 131.173333333 973 -75.4133333333 c 128,-1,17
 912 -282 912 -282 897.447916667 -345.5 c 128,-1,18
 882.895833333 -409 882.895833333 -409 841 -409 c 0,19,20
 802.275862069 -409 802.275862069 -409 786.137931034 -345.5 c 128,-1,21
 770 -282 770 -282 711.5 -74.4452054795 c 128,-1,11
 653 133.109589041 653 133.109589041 653 212.554794521 c 128,-1,12
EndSplineSet
EndChar

StartChar: dagger
Encoding: 8224 8224 318
Width: 1061
GlyphClass: 2
Flags: HW
LayerCount: 2
Fore
SplineSet
893.5 1199 m 0,0,1
 1025 1199 1025 1199 1025 1057 c 128,-1,2
 1025 915 1025 915 907 915 c 0,3,4
 831.571428571 915 831.571428571 915 714.785714286 960 c 128,-1,5
 598 1005 598 1005 592 1007 c 1,6,7
 712 366.090909091 712 366.090909091 712 243.545454545 c 128,-1,8
 712 121 712 121 655.5 63 c 128,-1,9
 599 5 599 5 524 5 c 128,-1,10
 449 5 449 5 395 61.5 c 128,-1,11
 341 118 341 118 341 204 c 0,12,13
 341 369 341 369 455 1002 c 1,14,15
 230.483870968 915 230.483870968 915 163.241935484 915 c 0,16,17
 34 915 34 915 34 1056 c 0,18,19
 34 1114 34 1114 65.5 1156.5 c 128,-1,20
 97 1199 97 1199 143.5 1199 c 0,21,22
 234.71875 1199 234.71875 1199 460 1110 c 1,23,24
 338 1349.79310345 338 1349.79310345 338 1443.89655172 c 128,-1,25
 338 1538 338 1538 392.5 1582.5 c 128,-1,26
 447 1627 447 1627 523 1627 c 128,-1,27
 599 1627 599 1627 656 1582 c 128,-1,28
 713 1537 713 1537 713 1454.06976744 c 0,29,30
 713 1354.85714286 713 1354.85714286 584 1103 c 1,31,32
 824 1199 824 1199 893.5 1199 c 0,0,1
EndSplineSet
EndChar

StartChar: daggerdbl
Encoding: 8225 8225 319
Width: 1061
GlyphClass: 2
Flags: HW
LayerCount: 2
Fore
SplineSet
165.859375 389 m 0,0,1
 34 389 34 389 34 531 c 128,-1,2
 34 673 34 673 163.241935484 673 c 0,3,4
 230.483870968 673 230.483870968 673 455 586 c 1,5,-1
 455 1002 l 1,6,7
 230.483870968 915 230.483870968 915 163.241935484 915 c 0,8,9
 34 915 34 915 34 1056 c 0,10,11
 34 1114 34 1114 65.5 1156.5 c 128,-1,12
 97 1199 97 1199 143.5 1199 c 0,13,14
 234.71875 1199 234.71875 1199 460 1110 c 1,15,16
 338 1349.79310345 338 1349.79310345 338 1443.89655172 c 128,-1,17
 338 1538 338 1538 392.5 1582.5 c 128,-1,18
 447 1627 447 1627 523 1627 c 128,-1,19
 599 1627 599 1627 656 1582 c 128,-1,20
 713 1537 713 1537 713 1454.06976744 c 0,21,22
 713 1354.85714286 713 1354.85714286 584 1103 c 1,23,24
 824 1199 824 1199 893.5 1199 c 0,25,26
 1025 1199 1025 1199 1025 1057 c 128,-1,27
 1025 915 1025 915 907 915 c 0,28,29
 831.571428571 915 831.571428571 915 714.785714286 960 c 128,-1,30
 598 1005 598 1005 592 1007 c 1,31,-1
 592 581 l 1,32,33
 831.2 673 831.2 673 897.1 673 c 0,34,35
 1025 673 1025 673 1025 531 c 128,-1,36
 1025 389 1025 389 908 389 c 0,37,38
 824 389 824 389 584 485 c 1,39,40
 713 233.142857143 713 233.142857143 713 142.071428571 c 0,41,42
 713 -39 713 -39 523 -39 c 0,43,44
 447 -39 447 -39 392.5 5.5 c 128,-1,45
 338 50 338 50 338 124 c 0,46,47
 338 238.206896552 338 238.206896552 460 478 c 1,48,49
 234.71875 389 234.71875 389 165.859375 389 c 0,0,1
EndSplineSet
EndChar

StartChar: bullet
Encoding: 8226 8226 320
Width: 1120
GlyphClass: 2
Flags: HW
LayerCount: 2
Fore
SplineSet
1053 726 m 0,0,1
 1053 328.513227513 1053 328.513227513 806.5 232 c 0,2,3
 712 195 712 195 571 195 c 128,-1,4
 430 195 430 195 331 228.5 c 128,-1,5
 232 262 232 262 175 332 c 0,6,7
 71 459.719298246 71 459.719298246 71 734.359649123 c 128,-1,8
 71 1009 71 1009 188 1131.5 c 128,-1,9
 305 1254 305 1254 567.5 1254 c 128,-1,10
 830 1254 830 1254 941.5 1124.5 c 128,-1,11
 1053 995 1053 995 1053 726 c 0,0,1
EndSplineSet
EndChar

StartChar: ellipsis
Encoding: 8230 8230 321
Width: 2010
GlyphClass: 2
Flags: HW
LayerCount: 2
Fore
SplineSet
136 171 m 128,-1,1
 136 270 136 270 196.5 325.5 c 128,-1,2
 257 381 257 381 340 381 c 128,-1,3
 423 381 423 381 483.5 325.5 c 128,-1,4
 544 270 544 270 544 171 c 128,-1,5
 544 72 544 72 483.5 16.5 c 128,-1,6
 423 -39 423 -39 340 -39 c 128,-1,7
 257 -39 257 -39 196.5 16.5 c 128,-1,0
 136 72 136 72 136 171 c 128,-1,1
806 171 m 128,-1,9
 806 270 806 270 866.5 325.5 c 128,-1,10
 927 381 927 381 1010 381 c 128,-1,11
 1093 381 1093 381 1153.5 325.5 c 128,-1,12
 1214 270 1214 270 1214 171 c 128,-1,13
 1214 72 1214 72 1153.5 16.5 c 128,-1,14
 1093 -39 1093 -39 1010 -39 c 128,-1,15
 927 -39 927 -39 866.5 16.5 c 128,-1,8
 806 72 806 72 806 171 c 128,-1,9
1476 171 m 128,-1,17
 1476 270 1476 270 1536.5 325.5 c 128,-1,18
 1597 381 1597 381 1680 381 c 128,-1,19
 1763 381 1763 381 1823.5 325.5 c 128,-1,20
 1884 270 1884 270 1884 171 c 128,-1,21
 1884 72 1884 72 1823.5 16.5 c 128,-1,22
 1763 -39 1763 -39 1680 -39 c 128,-1,23
 1597 -39 1597 -39 1536.5 16.5 c 128,-1,16
 1476 72 1476 72 1476 171 c 128,-1,17
EndSplineSet
EndChar

StartChar: guilsinglleft
Encoding: 8249 8249 322
Width: 1036
GlyphClass: 2
Flags: HW
LayerCount: 2
Fore
SplineSet
904 279 m 0,0,1
 904 190 904 190 824.5 190 c 0,2,3
 791 190 791 190 760 213 c 2,4,-1
 234 593 l 1,5,6
 144 656.409090909 144 656.409090909 145.101799035 776.303492361 c 128,-1,7
 146.203598069 896.197893813 146.203598069 896.197893813 234 961 c 1,8,-1
 760 1341 l 2,9,10
 792 1364 792 1364 826 1364 c 0,11,12
 906 1364 906 1364 906 1277.5 c 0,13,14
 906 1241 906 1241 882 1209 c 2,15,-1
 548 777 l 1,16,-1
 882 345 l 2,17,18
 904 317 904 317 904 279 c 0,0,1
EndSplineSet
EndChar

StartChar: guilsinglright
Encoding: 8250 8250 323
Width: 1034
GlyphClass: 2
Flags: HW
LayerCount: 2
Fore
SplineSet
144 1277.5 m 0,0,1
 144 1364 144 1364 224 1364 c 0,2,3
 258 1364 258 1364 290 1341 c 2,4,-1
 816 961 l 1,5,6
 903.796401931 896.197893813 903.796401931 896.197893813 904.898200965 776.303492361 c 128,-1,7
 906 656.409090909 906 656.409090909 816 593 c 1,8,-1
 290 213 l 2,9,10
 259 190 259 190 225.5 190 c 0,11,12
 146 190 146 190 146 279 c 0,13,14
 146 317 146 317 168 345 c 2,15,-1
 502 777 l 1,16,-1
 168 1209 l 2,17,18
 144 1241 144 1241 144 1277.5 c 0,0,1
EndSplineSet
EndChar

StartChar: uni2074
Encoding: 8308 8308 324
Width: 1298
GlyphClass: 2
Flags: HW
LayerCount: 2
Fore
SplineSet
1096 130 m 1,0,-1
 737 130 l 1,1,-1
 737 291 l 1,2,-1
 221 291 l 1,3,-1
 221 571 l 1,4,-1
 391 1172 l 1,5,-1
 776 1172 l 1,6,-1
 607 571 l 1,7,-1
 607 535 l 1,8,-1
 737 535 l 1,9,-1
 737 760 l 1,10,-1
 1096 760 l 1,11,-1
 1096 130 l 1,0,-1
EndSplineSet
EndChar

StartChar: Euro
Encoding: 8364 8364 325
Width: 1432
GlyphClass: 2
Flags: HW
LayerCount: 2
Fore
SplineSet
1472 369 m 2,0,1
 1472 -40 1472 -40 826.3 -40 c 0,2,3
 452.193548387 -40 452.193548387 -40 335.096774194 20.5 c 128,-1,4
 218 81 218 81 154 149.923076923 c 128,-1,5
 90 218.846153846 90 218.846153846 90 370 c 2,6,-1
 90 561 l 1,7,-1
 0 561 l 1,8,-1
 0 705 l 1,9,-1
 90 705 l 1,10,-1
 90 843 l 1,11,-1
 0 843 l 1,12,-1
 0 987 l 1,13,-1
 90 987 l 1,14,-1
 90 1226 l 2,15,16
 90 1632 90 1632 748.35 1632 c 0,17,18
 1137.3442623 1632 1137.3442623 1632 1246.67213115 1573.5 c 128,-1,19
 1356 1515 1356 1515 1414 1446.38028169 c 128,-1,20
 1472 1377.76056338 1472 1377.76056338 1472 1227 c 2,21,-1
 1472 1139 l 1,22,-1
 868 1139 l 1,23,-1
 868 1356 l 1,24,-1
 695 1356 l 1,25,-1
 695 988 l 1,26,-1
 1037 988 l 1,27,-1
 1037 843 l 1,28,-1
 695 843 l 1,29,-1
 695 706 l 1,30,-1
 1037 706 l 1,31,-1
 1037 561 l 1,32,-1
 695 561 l 1,33,-1
 695 233 l 1,34,-1
 868 233 l 1,35,-1
 868 451 l 1,36,-1
 1472 451 l 1,37,-1
 1472 369 l 2,0,1
EndSplineSet
EndChar

StartChar: trademark
Encoding: 8482 8482 326
Width: 1884
GlyphClass: 2
Flags: HW
LayerCount: 2
Fore
SplineSet
745 1595 m 1,0,-1
 745 1453 l 1,1,-1
 582 1453 l 1,2,-1
 582 657 l 1,3,-1
 209 657 l 1,4,-1
 209 1453 l 1,5,-1
 47 1453 l 1,6,-1
 47 1595 l 1,7,-1
 745 1595 l 1,0,-1
1160 657 m 1,8,-1
 789 657 l 1,9,-1
 789 1595 l 1,10,-1
 1223 1595 l 1,11,-1
 1291 1158 l 1,12,-1
 1351 1595 l 1,13,-1
 1791 1595 l 1,14,-1
 1791 657 l 1,15,-1
 1421 657 l 1,16,-1
 1421 951 l 1,17,-1
 1342 657 l 1,18,-1
 1238 657 l 1,19,-1
 1160 951 l 1,20,-1
 1160 657 l 1,8,-1
EndSplineSet
EndChar

StartChar: glyph327
Encoding: 65539 -1 327
Width: 706
GlyphClass: 2
Flags: HW
LayerCount: 2
Fore
SplineSet
157 -294 m 128,-1,1
 157 -201 157 -201 217.5 -148 c 128,-1,2
 278 -95 278 -95 371 -95 c 128,-1,3
 464 -95 464 -95 517.5 -163 c 128,-1,4
 571 -231 571 -231 571 -318 c 128,-1,5
 571 -405 571 -405 547.5 -475.5 c 128,-1,6
 524 -546 524 -546 481 -605 c 0,7,8
 384.06779661 -738 384.06779661 -738 224 -738 c 0,9,10
 202 -738 202 -738 180 -735 c 1,11,-1
 180 -626 l 1,12,13
 327.452894438 -623.659477866 327.452894438 -623.659477866 336 -504 c 1,14,15
 261 -496 261 -496 209 -441.5 c 128,-1,0
 157 -387 157 -387 157 -294 c 128,-1,1
EndSplineSet
EndChar

StartChar: glyph328
Encoding: 65540 -1 328
Width: 380
GlyphClass: 2
Flags: HW
LayerCount: 2
Fore
SplineSet
-17 -294 m 128,-1,1
 -17 -201 -17 -201 43.5 -148 c 128,-1,2
 104 -95 104 -95 197 -95 c 128,-1,3
 290 -95 290 -95 343.5 -163 c 128,-1,4
 397 -231 397 -231 397 -318 c 128,-1,5
 397 -405 397 -405 373.5 -475.5 c 128,-1,6
 350 -546 350 -546 307 -605 c 0,7,8
 210.06779661 -738 210.06779661 -738 50 -738 c 0,9,10
 28 -738 28 -738 6 -735 c 1,11,-1
 6 -626 l 1,12,13
 153.452894438 -623.659477866 153.452894438 -623.659477866 162 -504 c 1,14,15
 87 -496 87 -496 35 -441.5 c 128,-1,0
 -17 -387 -17 -387 -17 -294 c 128,-1,1
EndSplineSet
EndChar

StartChar: glyph329
Encoding: 65541 -1 329
Width: 1342
GlyphClass: 2
Flags: HW
LayerCount: 2
Fore
SplineSet
288 -95 m 0,0,1
 391 -95 391 -95 391 -14 c 0,2,3
 391 22 391 22 370 90 c 2,4,-1
 10 1300 l 1,5,-1
 563 1300 l 1,6,-1
 628 613 l 1,7,-1
 645 267 l 1,8,-1
 694 267 l 1,9,-1
 711 613 l 1,10,-1
 781 1300 l 1,11,-1
 1333 1300 l 1,12,-1
 933 -26 l 2,13,14
 820.206349206 -400 820.206349206 -400 407 -400 c 0,15,16
 300 -400 300 -400 172 -378 c 1,17,-1
 135 -73 l 1,18,19
 229 -95 229 -95 288 -95 c 0,0,1
EndSplineSet
EndChar
